<svg width="215" height="44" viewBox="0 0 215 44" fill="none" xmlns="http://www.w3.org/2000/svg">
<path d="M54.6114 21.6872C54.6114 22.8286 54.7554 23.9379 55.0434 25.0152C55.3367 26.0926 55.7634 27.1166 56.3234 28.0872C56.4087 28.2526 56.43 28.3779 56.3874 28.4632C56.3447 28.5539 56.2834 28.6259 56.2034 28.6792L55.5714 29.0632C55.1714 28.4499 54.83 27.8419 54.5474 27.2392C54.27 26.6366 54.0434 26.0312 53.8674 25.4232C53.6967 24.8152 53.5714 24.2046 53.4914 23.5912C53.4114 22.9726 53.3714 22.3379 53.3714 21.6872C53.3714 21.0419 53.4114 20.4099 53.4914 19.7912C53.5714 19.1726 53.6967 18.5619 53.8674 17.9592C54.0434 17.3512 54.27 16.7459 54.5474 16.1432C54.83 15.5406 55.1714 14.9299 55.5714 14.3112L56.2034 14.7032C56.2834 14.7566 56.3447 14.8286 56.3874 14.9192C56.43 15.0046 56.4087 15.1272 56.3234 15.2872C55.7634 16.2579 55.3367 17.2819 55.0434 18.3592C54.7554 19.4366 54.6114 20.5459 54.6114 21.6872ZM65.397 21.8872L62.133 21.8872L62.133 25.3272L60.973 25.3272L60.973 21.8872L57.725 21.8872L57.725 20.8072L60.973 20.8072L60.973 17.3912L62.133 17.3912L62.133 20.8072L65.397 20.8072L65.397 21.8872ZM74.0942 25.3672C74.2489 25.3672 74.3716 25.4126 74.4622 25.5032C74.5529 25.5939 74.5982 25.7112 74.5982 25.8552L74.5982 26.7192L66.9502 26.7192L66.9502 26.2312C66.9502 26.1299 66.9716 26.0259 67.0142 25.9192C67.0569 25.8126 67.1236 25.7139 67.2142 25.6232L70.8862 21.9352C71.1902 21.6259 71.4676 21.3299 71.7182 21.0472C71.9689 20.7592 72.1822 20.4712 72.3582 20.1832C72.5342 19.8952 72.6702 19.6046 72.7662 19.3112C72.8622 19.0126 72.9102 18.6952 72.9102 18.3592C72.9102 18.0232 72.8569 17.7299 72.7502 17.4792C72.6436 17.2232 72.4969 17.0126 72.3102 16.8472C72.1289 16.6819 71.9129 16.5592 71.6622 16.4792C71.4116 16.3939 71.1422 16.3512 70.8542 16.3512C70.5609 16.3512 70.2916 16.3939 70.0462 16.4792C69.8009 16.5646 69.5822 16.6846 69.3902 16.8392C69.2036 16.9886 69.0462 17.1672 68.9182 17.3752C68.7902 17.5832 68.6996 17.8126 68.6462 18.0632C68.5822 18.2499 68.4942 18.3752 68.3822 18.4392C68.2756 18.4979 68.1236 18.5139 67.9262 18.4872L67.1822 18.3592C67.2569 17.8366 67.4009 17.3752 67.6142 16.9752C67.8329 16.5699 68.1049 16.2312 68.4302 15.9592C68.7609 15.6872 69.1369 15.4819 69.5582 15.3432C69.9796 15.1992 70.4356 15.1272 70.9262 15.1272C71.4116 15.1272 71.8649 15.1992 72.2862 15.3432C72.7076 15.4872 73.0729 15.6979 73.3822 15.9752C73.6916 16.2472 73.9342 16.5806 74.1102 16.9752C74.2862 17.3699 74.3742 17.8179 74.3742 18.3192C74.3742 18.7459 74.3102 19.1432 74.1822 19.5112C74.0542 19.8739 73.8809 20.2206 73.6622 20.5512C73.4436 20.8819 73.1902 21.2046 72.9022 21.5192C72.6196 21.8339 72.3182 22.1512 71.9982 22.4712L68.9742 25.5592C69.1876 25.5006 69.4036 25.4552 69.6222 25.4232C69.8409 25.3859 70.0516 25.3672 70.2542 25.3672L74.0942 25.3672ZM83.3755 25.3672C83.5302 25.3672 83.6528 25.4126 83.7435 25.5032C83.8342 25.5939 83.8795 25.7112 83.8795 25.8552L83.8795 26.7192L76.2315 26.7192L76.2315 26.2312C76.2315 26.1299 76.2528 26.0259 76.2955 25.9192C76.3382 25.8126 76.4048 25.7139 76.4955 25.6232L80.1675 21.9352C80.4715 21.6259 80.7488 21.3299 80.9995 21.0472C81.2502 20.7592 81.4635 20.4712 81.6395 20.1832C81.8155 19.8952 81.9515 19.6046 82.0475 19.3112C82.1435 19.0126 82.1915 18.6952 82.1915 18.3592C82.1915 18.0232 82.1382 17.7299 82.0315 17.4792C81.9248 17.2232 81.7782 17.0126 81.5915 16.8472C81.4102 16.6819 81.1942 16.5592 80.9435 16.4792C80.6928 16.3939 80.4235 16.3512 80.1355 16.3512C79.8422 16.3512 79.5728 16.3939 79.3275 16.4792C79.0822 16.5646 78.8635 16.6846 78.6715 16.8392C78.4848 16.9886 78.3275 17.1672 78.1995 17.3752C78.0715 17.5832 77.9808 17.8126 77.9275 18.0632C77.8635 18.2499 77.7755 18.3752 77.6635 18.4392C77.5568 18.4979 77.4048 18.5139 77.2075 18.4872L76.4635 18.3592C76.5382 17.8366 76.6822 17.3752 76.8955 16.9752C77.1142 16.5699 77.3862 16.2312 77.7115 15.9592C78.0422 15.6872 78.4182 15.4819 78.8395 15.3432C79.2608 15.1992 79.7168 15.1272 80.2075 15.1272C80.6928 15.1272 81.1462 15.1992 81.5675 15.3432C81.9888 15.4872 82.3542 15.6979 82.6635 15.9752C82.9728 16.2472 83.2155 16.5806 83.3915 16.9752C83.5675 17.3699 83.6555 17.8179 83.6555 18.3192C83.6555 18.7459 83.5915 19.1432 83.4635 19.5112C83.3355 19.8739 83.1622 20.2206 82.9435 20.5512C82.7248 20.8819 82.4715 21.2046 82.1835 21.5192C81.9008 21.8339 81.5995 22.1512 81.2795 22.4712L78.2555 25.5592C78.4688 25.5006 78.6848 25.4552 78.9035 25.4232C79.1222 25.3859 79.3328 25.3672 79.5355 25.3672L83.3755 25.3672ZM87.0727 21.6872C87.0727 20.5459 86.9261 19.4366 86.6327 18.3592C86.3447 17.2819 85.9207 16.2579 85.3607 15.2872C85.3181 15.2072 85.2914 15.1379 85.2807 15.0792C85.2701 15.0152 85.2727 14.9619 85.2887 14.9192C85.3047 14.8712 85.3287 14.8312 85.3607 14.7992C85.3981 14.7619 85.4381 14.7299 85.4807 14.7032L86.1127 14.3112C86.5127 14.9299 86.8514 15.5406 87.1287 16.1432C87.4114 16.7459 87.6381 17.3512 87.8087 17.9592C87.9847 18.5619 88.1127 19.1726 88.1927 19.7912C88.2727 20.4099 88.3127 21.0419 88.3127 21.6872C88.3127 22.3379 88.2727 22.9726 88.1927 23.5912C88.1127 24.2046 87.9847 24.8152 87.8087 25.4232C87.6381 26.0312 87.4114 26.6366 87.1287 27.2392C86.8514 27.8419 86.5127 28.4499 86.1127 29.0632L85.4807 28.6792C85.4381 28.6526 85.3981 28.6206 85.3607 28.5832C85.3287 28.5512 85.3047 28.5112 85.2887 28.4632C85.2727 28.4206 85.2701 28.3672 85.2807 28.3032C85.2914 28.2392 85.3181 28.1672 85.3607 28.0872C85.9207 27.1166 86.3447 26.0926 86.6327 25.0152C86.9261 23.9379 87.0727 22.8286 87.0727 21.6872ZM101.264 25.6312L101.264 26.7192L95.1201 26.7192L95.1201 25.6312L97.5761 25.6312L97.5761 17.8152C97.5761 17.5806 97.5841 17.3432 97.6001 17.1032L95.5601 18.8552C95.4908 18.9139 95.4214 18.9512 95.3521 18.9672C95.2828 18.9779 95.2188 18.9779 95.1601 18.9672C95.1014 18.9566 95.0454 18.9352 94.9921 18.9032C94.9441 18.8712 94.9068 18.8366 94.8801 18.7992L94.4321 18.1832L97.8481 15.2312L99.0081 15.2312L99.0081 25.6312L101.264 25.6312ZM110.297 25.3672C110.452 25.3672 110.575 25.4126 110.665 25.5032C110.756 25.5939 110.801 25.7112 110.801 25.8552L110.801 26.7192L103.153 26.7192L103.153 26.2312C103.153 26.1299 103.175 26.0259 103.217 25.9192C103.26 25.8126 103.327 25.7139 103.417 25.6232L107.089 21.9352C107.393 21.6259 107.671 21.3299 107.921 21.0472C108.172 20.7592 108.385 20.4712 108.561 20.1832C108.737 19.8952 108.873 19.6046 108.969 19.3112C109.065 19.0126 109.113 18.6952 109.113 18.3592C109.113 18.0232 109.06 17.7299 108.953 17.4792C108.847 17.2232 108.7 17.0126 108.513 16.8472C108.332 16.6819 108.116 16.5592 107.865 16.4792C107.615 16.3939 107.345 16.3512 107.057 16.3512C106.764 16.3512 106.495 16.3939 106.249 16.4792C106.004 16.5646 105.785 16.6846 105.593 16.8392C105.407 16.9886 105.249 17.1672 105.121 17.3752C104.993 17.5832 104.903 17.8126 104.849 18.0632C104.785 18.2499 104.697 18.3752 104.585 18.4392C104.479 18.4979 104.327 18.5139 104.129 18.4872L103.385 18.3592C103.46 17.8366 103.604 17.3752 103.817 16.9752C104.036 16.5699 104.308 16.2312 104.633 15.9592C104.964 15.6872 105.34 15.4819 105.761 15.3432C106.183 15.1992 106.639 15.1272 107.129 15.1272C107.615 15.1272 108.068 15.1992 108.489 15.3432C108.911 15.4872 109.276 15.6979 109.585 15.9752C109.895 16.2472 110.137 16.5806 110.313 16.9752C110.489 17.3699 110.577 17.8179 110.577 18.3192C110.577 18.7459 110.513 19.1432 110.385 19.5112C110.257 19.8739 110.084 20.2206 109.865 20.5512C109.647 20.8819 109.393 21.2046 109.105 21.5192C108.823 21.8339 108.521 22.1512 108.201 22.4712L105.177 25.5592C105.391 25.5006 105.607 25.4552 105.825 25.4232C106.044 25.3859 106.255 25.3672 106.457 25.3672L110.297 25.3672ZM112.723 18.3592C112.797 17.8366 112.941 17.3752 113.155 16.9752C113.368 16.5699 113.637 16.2312 113.963 15.9592C114.293 15.6872 114.669 15.4819 115.091 15.3432C115.517 15.1992 115.976 15.1272 116.467 15.1272C116.952 15.1272 117.4 15.1966 117.811 15.3352C118.221 15.4739 118.573 15.6712 118.867 15.9272C119.165 16.1832 119.397 16.4926 119.563 16.8552C119.728 17.2179 119.811 17.6206 119.811 18.0632C119.811 18.4259 119.763 18.7512 119.667 19.0392C119.576 19.3219 119.443 19.5699 119.267 19.7832C119.096 19.9966 118.888 20.1779 118.643 20.3272C118.397 20.4766 118.123 20.5992 117.819 20.6952C118.565 20.8872 119.125 21.2179 119.499 21.6872C119.877 22.1512 120.067 22.7326 120.067 23.4312C120.067 23.9592 119.965 24.4339 119.763 24.8552C119.565 25.2766 119.293 25.6366 118.947 25.9352C118.6 26.2286 118.195 26.4552 117.731 26.6152C117.272 26.7699 116.779 26.8472 116.251 26.8472C115.643 26.8472 115.123 26.7726 114.691 26.6232C114.259 26.4686 113.893 26.2579 113.595 25.9912C113.296 25.7246 113.051 25.4099 112.859 25.0472C112.667 24.6792 112.504 24.2819 112.371 23.8552L112.987 23.5992C113.147 23.5299 113.301 23.5112 113.451 23.5432C113.605 23.5752 113.717 23.6632 113.787 23.8072C113.856 23.9566 113.941 24.1352 114.043 24.3432C114.149 24.5512 114.293 24.7512 114.475 24.9432C114.656 25.1352 114.885 25.2979 115.163 25.4312C115.445 25.5646 115.803 25.6312 116.235 25.6312C116.635 25.6312 116.984 25.5672 117.283 25.4392C117.587 25.3059 117.837 25.1352 118.035 24.9272C118.237 24.7192 118.389 24.4872 118.491 24.2312C118.592 23.9752 118.643 23.7219 118.643 23.4712C118.643 23.1619 118.603 22.8792 118.523 22.6232C118.443 22.3672 118.293 22.1459 118.075 21.9592C117.856 21.7726 117.555 21.6259 117.171 21.5192C116.792 21.4126 116.304 21.3592 115.707 21.3592L115.707 20.3272C116.197 20.3219 116.613 20.2686 116.955 20.1672C117.301 20.0659 117.581 19.9272 117.795 19.7512C118.013 19.5752 118.171 19.3646 118.267 19.1192C118.368 18.8739 118.419 18.6019 118.419 18.3032C118.419 17.9726 118.365 17.6846 118.259 17.4392C118.157 17.1939 118.016 16.9912 117.835 16.8312C117.653 16.6712 117.437 16.5512 117.187 16.4712C116.941 16.3912 116.675 16.3512 116.387 16.3512C116.099 16.3512 115.829 16.3939 115.579 16.4792C115.333 16.5646 115.115 16.6846 114.923 16.8392C114.736 16.9886 114.579 17.1672 114.451 17.3752C114.323 17.5832 114.232 17.8126 114.179 18.0632C114.109 18.2499 114.021 18.3752 113.915 18.4392C113.813 18.4979 113.664 18.5139 113.467 18.4872L112.723 18.3592ZM126.058 21.3193L130.01 21.3193L130.01 22.5273L126.058 22.5273L126.058 21.3193ZM140.929 22.5833L140.929 17.8553C140.929 17.7166 140.934 17.5646 140.945 17.3993C140.956 17.2339 140.972 17.0659 140.993 16.8953L136.817 22.5833L140.929 22.5833ZM143.913 22.5833L143.913 23.3993C143.913 23.4846 143.886 23.5566 143.833 23.6153C143.785 23.6739 143.708 23.7033 143.601 23.7033L142.177 23.7033L142.177 26.7193L140.929 26.7193L140.929 23.7033L135.841 23.7033C135.734 23.7033 135.641 23.6739 135.561 23.6153C135.486 23.5513 135.438 23.4739 135.417 23.3833L135.273 22.6553L140.849 15.2553L142.177 15.2553L142.177 22.5833L143.913 22.5833ZM147.266 19.5833C147.863 19.4553 148.413 19.3913 148.914 19.3913C149.511 19.3913 150.039 19.4793 150.498 19.6553C150.957 19.8313 151.338 20.0739 151.642 20.3833C151.951 20.6926 152.183 21.0579 152.338 21.4793C152.498 21.9006 152.578 22.3593 152.578 22.8553C152.578 23.4633 152.471 24.0126 152.258 24.5033C152.05 24.9939 151.759 25.4153 151.386 25.7673C151.018 26.1139 150.583 26.3806 150.082 26.5673C149.581 26.7539 149.039 26.8473 148.458 26.8473C148.122 26.8473 147.799 26.8126 147.49 26.7433C147.181 26.6793 146.89 26.5913 146.618 26.4793C146.351 26.3673 146.103 26.2393 145.874 26.0953C145.645 25.9513 145.442 25.7993 145.266 25.6393L145.706 25.0313C145.802 24.8926 145.927 24.8233 146.082 24.8233C146.189 24.8233 146.309 24.8659 146.442 24.9513C146.575 25.0313 146.738 25.1219 146.93 25.2233C147.122 25.3246 147.346 25.4179 147.602 25.5033C147.863 25.5833 148.173 25.6233 148.53 25.6233C148.93 25.6233 149.29 25.5593 149.61 25.4313C149.93 25.3033 150.205 25.1219 150.434 24.8873C150.663 24.6473 150.839 24.3619 150.962 24.0313C151.085 23.7006 151.146 23.3299 151.146 22.9193C151.146 22.5619 151.093 22.2393 150.986 21.9513C150.885 21.6633 150.727 21.4179 150.514 21.2153C150.306 21.0126 150.045 20.8553 149.73 20.7433C149.415 20.6313 149.047 20.5753 148.626 20.5753C148.338 20.5753 148.037 20.5993 147.722 20.6473C147.413 20.6953 147.095 20.7726 146.77 20.8793L145.874 20.6153L146.794 15.2553L152.226 15.2553L152.226 15.8793C152.226 16.0819 152.162 16.2499 152.034 16.3833C151.911 16.5113 151.698 16.5753 151.394 16.5753L147.794 16.5753L147.266 19.5833ZM158.275 25.6633C158.659 25.6633 159.006 25.6019 159.315 25.4793C159.63 25.3566 159.897 25.1859 160.115 24.9673C160.339 24.7486 160.51 24.4899 160.627 24.1913C160.75 23.8926 160.811 23.5673 160.811 23.2153C160.811 22.8419 160.753 22.5059 160.635 22.2073C160.518 21.9033 160.35 21.6473 160.131 21.4393C159.918 21.2259 159.662 21.0633 159.363 20.9513C159.065 20.8393 158.737 20.7833 158.379 20.7833C157.995 20.7833 157.649 20.8499 157.339 20.9833C157.03 21.1113 156.766 21.2873 156.547 21.5113C156.334 21.7299 156.169 21.9859 156.051 22.2793C155.939 22.5673 155.883 22.8686 155.883 23.1833C155.883 23.5513 155.937 23.8873 156.043 24.1913C156.15 24.4953 156.305 24.7566 156.507 24.9753C156.715 25.1939 156.966 25.3646 157.259 25.4873C157.558 25.6046 157.897 25.6633 158.275 25.6633ZM157.443 19.5513C157.342 19.6793 157.243 19.8046 157.147 19.9273C157.057 20.0446 156.969 20.1619 156.883 20.2793C157.155 20.0926 157.454 19.9486 157.779 19.8473C158.105 19.7459 158.459 19.6953 158.843 19.6953C159.307 19.6953 159.745 19.7726 160.155 19.9273C160.566 20.0766 160.923 20.2979 161.227 20.5913C161.537 20.8793 161.782 21.2366 161.963 21.6633C162.145 22.0846 162.235 22.5673 162.235 23.1113C162.235 23.6393 162.139 24.1299 161.947 24.5833C161.755 25.0366 161.486 25.4313 161.139 25.7673C160.798 26.1033 160.385 26.3673 159.899 26.5593C159.419 26.7513 158.889 26.8473 158.307 26.8473C157.731 26.8473 157.209 26.7566 156.739 26.5753C156.27 26.3886 155.87 26.1273 155.539 25.7913C155.214 25.4499 154.961 25.0393 154.779 24.5593C154.603 24.0739 154.515 23.5326 154.515 22.9353C154.515 22.4339 154.625 21.9006 154.843 21.3353C155.067 20.7646 155.422 20.1566 155.907 19.5113L158.819 15.5993C158.894 15.5033 158.995 15.4233 159.123 15.3593C159.257 15.2899 159.409 15.2553 159.579 15.2553L160.843 15.2553L157.443 19.5513ZM171.581 15.2553L171.581 15.8953C171.581 16.0766 171.559 16.2259 171.517 16.3433C171.479 16.4606 171.442 16.5593 171.405 16.6393L166.653 26.2153C166.583 26.3539 166.487 26.4739 166.365 26.5753C166.242 26.6713 166.079 26.7193 165.877 26.7193L164.853 26.7193L169.669 17.2633C169.738 17.1299 169.81 17.0073 169.885 16.8953C169.959 16.7833 170.039 16.6766 170.125 16.5753L164.141 16.5753C164.05 16.5753 163.97 16.5406 163.901 16.4713C163.831 16.3966 163.797 16.3139 163.797 16.2233L163.797 15.2553L171.581 15.2553ZM177.308 21.3193L181.26 21.3193L181.26 22.5273L177.308 22.5273L177.308 21.3193ZM188.603 18.6233C188.603 18.9859 188.654 19.3113 188.755 19.5993C188.862 19.8819 189.011 20.1219 189.203 20.3193C189.4 20.5166 189.638 20.6659 189.915 20.7673C190.198 20.8686 190.512 20.9193 190.859 20.9193C191.243 20.9193 191.582 20.8579 191.875 20.7353C192.174 20.6073 192.424 20.4393 192.627 20.2313C192.83 20.0233 192.984 19.7833 193.091 19.5113C193.198 19.2393 193.251 18.9566 193.251 18.6633C193.251 18.3059 193.192 17.9833 193.075 17.6953C192.963 17.4019 192.806 17.1539 192.603 16.9513C192.4 16.7486 192.158 16.5939 191.875 16.4873C191.598 16.3753 191.291 16.3193 190.955 16.3193C190.603 16.3193 190.283 16.3779 189.995 16.4953C189.707 16.6073 189.459 16.7646 189.251 16.9673C189.043 17.1699 188.883 17.4126 188.771 17.6953C188.659 17.9779 188.603 18.2873 188.603 18.6233ZM191.931 22.1513C192.048 21.9966 192.158 21.8499 192.259 21.7113C192.36 21.5726 192.456 21.4339 192.547 21.2953C192.254 21.5299 191.923 21.7086 191.555 21.8313C191.187 21.9539 190.798 22.0153 190.387 22.0153C189.955 22.0153 189.544 21.9433 189.155 21.7993C188.771 21.6553 188.432 21.4446 188.139 21.1673C187.846 20.8846 187.611 20.5406 187.435 20.1353C187.264 19.7246 187.179 19.2553 187.179 18.7273C187.179 18.2259 187.272 17.7566 187.459 17.3193C187.646 16.8819 187.907 16.5006 188.243 16.1753C188.579 15.8499 188.979 15.5939 189.443 15.4073C189.907 15.2206 190.416 15.1273 190.971 15.1273C191.52 15.1273 192.019 15.2179 192.467 15.3993C192.915 15.5806 193.299 15.8339 193.619 16.1593C193.939 16.4846 194.184 16.8739 194.355 17.3273C194.531 17.7806 194.619 18.2819 194.619 18.8313C194.619 19.1619 194.587 19.4766 194.523 19.7753C194.464 20.0686 194.376 20.3593 194.259 20.6473C194.147 20.9299 194.008 21.2126 193.843 21.4953C193.678 21.7726 193.491 22.0579 193.283 22.3513L190.491 26.3833C190.422 26.4846 190.323 26.5673 190.195 26.6313C190.067 26.6899 189.92 26.7193 189.755 26.7193L188.443 26.7193L191.931 22.1513ZM204.42 20.9913C204.42 21.9939 204.311 22.8633 204.092 23.5993C203.879 24.3299 203.585 24.9353 203.212 25.4153C202.839 25.8953 202.396 26.2526 201.884 26.4873C201.377 26.7219 200.833 26.8393 200.252 26.8393C199.665 26.8393 199.119 26.7219 198.612 26.4873C198.111 26.2526 197.673 25.8953 197.3 25.4153C196.927 24.9353 196.633 24.3299 196.42 23.5993C196.207 22.8633 196.1 21.9939 196.1 20.9913C196.1 19.9886 196.207 19.1193 196.42 18.3833C196.633 17.6473 196.927 17.0393 197.3 16.5593C197.673 16.0739 198.111 15.7139 198.612 15.4793C199.119 15.2446 199.665 15.1273 200.252 15.1273C200.833 15.1273 201.377 15.2446 201.884 15.4793C202.396 15.7139 202.839 16.0739 203.212 16.5593C203.585 17.0393 203.879 17.6473 204.092 18.3833C204.311 19.1193 204.42 19.9886 204.42 20.9913ZM202.94 20.9913C202.94 20.1166 202.865 19.3833 202.716 18.7913C202.572 18.1939 202.375 17.7139 202.124 17.3513C201.879 16.9886 201.593 16.7299 201.268 16.5753C200.943 16.4153 200.604 16.3353 200.252 16.3353C199.9 16.3353 199.561 16.4153 199.236 16.5753C198.911 16.7299 198.625 16.9886 198.38 17.3513C198.135 17.7139 197.937 18.1939 197.788 18.7913C197.644 19.3833 197.572 20.1166 197.572 20.9913C197.572 21.8659 197.644 22.5993 197.788 23.1913C197.937 23.7833 198.135 24.2606 198.38 24.6233C198.625 24.9859 198.911 25.2473 199.236 25.4073C199.561 25.5619 199.9 25.6393 200.252 25.6393C200.604 25.6393 200.943 25.5619 201.268 25.4073C201.593 25.2473 201.879 24.9859 202.124 24.6233C202.375 24.2606 202.572 23.7833 202.716 23.1913C202.865 22.5993 202.94 21.8659 202.94 20.9913ZM213.701 20.9913C213.701 21.9939 213.592 22.8633 213.373 23.5993C213.16 24.3299 212.867 24.9353 212.493 25.4153C212.12 25.8953 211.677 26.2526 211.165 26.4873C210.659 26.7219 210.115 26.8393 209.533 26.8393C208.947 26.8393 208.4 26.7219 207.893 26.4873C207.392 26.2526 206.955 25.8953 206.581 25.4153C206.208 24.9353 205.915 24.3299 205.701 23.5993C205.488 22.8633 205.381 21.9939 205.381 20.9913C205.381 19.9886 205.488 19.1193 205.701 18.3833C205.915 17.6473 206.208 17.0393 206.581 16.5593C206.955 16.0739 207.392 15.7139 207.893 15.4793C208.4 15.2446 208.947 15.1273 209.533 15.1273C210.115 15.1273 210.659 15.2446 211.165 15.4793C211.677 15.7139 212.12 16.0739 212.493 16.5593C212.867 17.0393 213.16 17.6473 213.373 18.3833C213.592 19.1193 213.701 19.9886 213.701 20.9913ZM212.221 20.9913C212.221 20.1166 212.147 19.3833 211.997 18.7913C211.853 18.1939 211.656 17.7139 211.405 17.3513C211.16 16.9886 210.875 16.7299 210.549 16.5753C210.224 16.4153 209.885 16.3353 209.533 16.3353C209.181 16.3353 208.843 16.4153 208.517 16.5753C208.192 16.7299 207.907 16.9886 207.661 17.3513C207.416 17.7139 207.219 18.1939 207.069 18.7913C206.925 19.3833 206.853 20.1166 206.853 20.9913C206.853 21.8659 206.925 22.5993 207.069 23.1913C207.219 23.7833 207.416 24.2606 207.661 24.6233C207.907 24.9859 208.192 25.2473 208.517 25.4073C208.843 25.5619 209.181 25.6393 209.533 25.6393C209.885 25.6393 210.224 25.5619 210.549 25.4073C210.875 25.2473 211.16 24.9859 211.405 24.6233C211.656 24.2606 211.853 23.7833 211.997 23.1913C212.147 22.5993 212.221 21.8659 212.221 20.9913Z" fill="#545454"/>
<circle cx="22.3864" cy="22.3884" r="21.5574" fill="#0FE3AF"/>
<path d="M29.6844 26.046C29.5066 25.8567 28.879 25.2968 27.7252 24.5562C26.563 23.809 25.7058 23.3432 25.46 23.2345C25.4383 23.2249 25.4144 23.2214 25.3909 23.2243C25.3674 23.2273 25.3451 23.2366 25.3265 23.2512C24.9304 23.5601 24.2636 24.1274 24.2279 24.1581C23.997 24.3559 23.997 24.3559 23.808 24.2943C23.4756 24.1853 22.4431 23.637 21.5434 22.7353C20.6437 21.8335 20.0671 20.7755 19.9582 20.4435C19.8958 20.2541 19.8958 20.2541 20.0944 20.0232C20.125 19.9875 20.6927 19.3207 21.0016 18.925C21.0162 18.9064 21.0255 18.8841 21.0285 18.8606C21.0314 18.8371 21.0279 18.8132 21.0183 18.7915C20.9096 18.5453 20.4438 17.6885 19.6966 16.5262C18.9549 15.3728 18.3958 14.7452 18.2064 14.5675C18.189 14.5511 18.1676 14.5397 18.1443 14.5345C18.1209 14.5292 18.0967 14.5304 18.0739 14.5378C17.4121 14.7653 16.7735 15.0555 16.1669 15.4045C15.5813 15.7449 15.0269 16.1364 14.5102 16.5743C14.4921 16.5896 14.4786 16.6096 14.4711 16.632C14.4635 16.6544 14.4622 16.6785 14.4673 16.7016C14.5384 17.0333 14.8786 18.4179 15.9343 20.3359C17.0115 22.2933 17.7579 23.2962 19.3397 24.8725C20.9216 26.4489 21.9561 27.2403 23.9156 28.3174C25.8335 29.3731 27.2189 29.7136 27.5499 29.7841C27.573 29.7891 27.5971 29.7878 27.6196 29.7803C27.6421 29.7727 27.6621 29.7592 27.6776 29.7412C28.1154 29.2245 28.5067 28.6701 28.847 28.0845C29.1959 27.4779 29.4861 26.8393 29.7137 26.1775C29.7209 26.1549 29.7221 26.1309 29.7169 26.1078C29.7118 26.0846 29.7005 26.0633 29.6844 26.046Z" fill="#0152A8"/>
</svg>
