<svg width="121" height="23" viewBox="0 0 121 23" fill="none" xmlns="http://www.w3.org/2000/svg">
<path fill-rule="evenodd" clip-rule="evenodd" d="M72.356 11.4508C72.356 5.50236 67.2066 0.679199 60.856 0.679199C54.5053 0.679199 49.356 5.50236 49.356 11.4508C49.356 16.8269 53.5606 21.2832 59.0591 22.092V14.5654H56.1384V11.4508H59.0591V9.07766C59.0591 6.37852 60.7764 4.88636 63.4029 4.88636C64.6612 4.88636 65.9776 5.09699 65.9776 5.09699V7.74804H64.5267C63.099 7.74804 62.6523 8.57803 62.6523 9.4311V11.4508H65.8415L65.3322 14.5654H62.6528V22.093C68.1513 21.2846 72.356 16.8284 72.356 11.4508V11.4508Z" fill="#0152A8"/>
<path d="M16.2397 2.46391C17.4685 2.46744 18.6459 2.93873 19.5148 3.77485C20.3837 4.61097 20.8734 5.74397 20.8771 6.92641V15.8505C20.8734 17.0329 20.3837 18.1659 19.5148 19.002C18.6459 19.8381 17.4685 20.3094 16.2397 20.313H6.96576C5.73696 20.3094 4.55954 19.8381 3.69064 19.002C2.82175 18.1659 2.33198 17.0329 2.32831 15.8505V6.92641C2.33198 5.74397 2.82175 4.61097 3.69064 3.77485C4.55954 2.93873 5.73696 2.46744 6.96576 2.46391H16.2397V2.46391ZM16.2397 0.679199H6.96576C3.39502 0.679199 0.473633 3.49037 0.473633 6.92641V15.8505C0.473633 19.2865 3.39502 22.0977 6.96576 22.0977H16.2397C19.8104 22.0977 22.7318 19.2865 22.7318 15.8505V6.92641C22.7318 3.49037 19.8104 0.679199 16.2397 0.679199V0.679199Z" fill="#0152A8"/>
<path d="M17.6308 6.92682C17.3557 6.92682 17.0867 6.84831 16.858 6.70122C16.6292 6.55412 16.4509 6.34505 16.3456 6.10045C16.2403 5.85584 16.2128 5.58668 16.2664 5.32701C16.3201 5.06733 16.4526 4.82881 16.6472 4.6416C16.8417 4.45438 17.0896 4.32689 17.3594 4.27523C17.6293 4.22358 17.909 4.25009 18.1632 4.35141C18.4174 4.45273 18.6347 4.62431 18.7875 4.84445C18.9404 5.06459 19.022 5.32341 19.022 5.58817C19.0224 5.76407 18.9866 5.93831 18.9169 6.10089C18.8471 6.26348 18.7446 6.4112 18.6154 6.53558C18.4861 6.65996 18.3326 6.75855 18.1637 6.82569C17.9947 6.89283 17.8136 6.9272 17.6308 6.92682V6.92682ZM11.6027 7.81894C12.3365 7.81894 13.0538 8.02831 13.6638 8.42058C14.2739 8.81284 14.7494 9.37039 15.0302 10.0227C15.311 10.675 15.3845 11.3928 15.2413 12.0853C15.0982 12.7778 14.7448 13.4139 14.226 13.9131C13.7072 14.4124 13.0461 14.7524 12.3265 14.8902C11.6069 15.0279 10.8609 14.9572 10.183 14.687C9.50516 14.4168 8.92576 13.9592 8.51811 13.3722C8.11047 12.7851 7.89289 12.0949 7.89289 11.3888C7.89394 10.4424 8.28514 9.53493 8.98065 8.86566C9.67615 8.19639 10.6192 7.81995 11.6027 7.81894V7.81894ZM11.6027 6.03423C10.5022 6.03423 9.42634 6.34827 8.51126 6.93664C7.59617 7.52501 6.88295 8.36129 6.46179 9.33972C6.04062 10.3181 5.93042 11.3948 6.14513 12.4335C6.35984 13.4722 6.88981 14.4263 7.66803 15.1751C8.44624 15.924 9.43775 16.434 10.5172 16.6406C11.5966 16.8472 12.7154 16.7411 13.7322 16.3359C14.749 15.9306 15.6181 15.2443 16.2295 14.3637C16.8409 13.4831 17.1673 12.4479 17.1673 11.3888C17.1673 9.96871 16.581 8.60674 15.5375 7.60256C14.4939 6.59837 13.0786 6.03423 11.6027 6.03423V6.03423Z" fill="#0152A8"/>
<path d="M120.827 4.71303C120.022 5.06274 119.169 5.29313 118.297 5.39693C119.214 4.86071 119.903 4.00882 120.236 3.00104C119.369 3.5073 118.423 3.86252 117.437 4.05148C117.022 3.61679 116.523 3.27098 115.97 3.03508C115.417 2.79917 114.822 2.6781 114.221 2.67921C111.786 2.67921 109.816 4.61916 109.816 7.01058C109.815 7.34322 109.853 7.67486 109.93 7.99844C108.184 7.91666 106.475 7.47169 104.912 6.69199C103.348 5.91228 101.964 4.81502 100.85 3.47039C100.458 4.12931 100.252 4.88112 100.251 5.64725C100.251 7.14915 101.035 8.47672 102.219 9.25449C101.517 9.23785 100.83 9.05231 100.216 8.71363V8.76727C100.216 10.8681 101.737 12.6159 103.749 13.0137C103.371 13.1145 102.981 13.1656 102.589 13.1657C102.311 13.1662 102.034 13.1392 101.761 13.0852C102.321 14.8062 103.949 16.0577 105.879 16.0935C104.311 17.3008 102.386 17.9533 100.407 17.9485C100.056 17.948 99.7048 17.9271 99.356 17.8859C101.369 19.1707 103.71 19.8503 106.099 19.8438C114.211 19.8438 118.643 13.2417 118.643 7.51568C118.643 7.32794 118.638 7.14021 118.629 6.95694C119.49 6.34548 120.234 5.58561 120.827 4.71303V4.71303Z" fill="#0152A8"/>
</svg>
