<svg width="226" height="24" viewBox="0 0 226 24" fill="none" xmlns="http://www.w3.org/2000/svg">
<path d="M10.5502 13.0011L11.0424 9.76672H7.91345V7.65735C7.91345 6.74329 8.33533 5.89954 9.74158 5.89954H11.183V3.12219C11.183 3.12219 9.8822 2.8761 8.65173 2.8761C6.08533 2.8761 4.39783 4.45813 4.39783 7.27063V9.76672H1.51501V13.0011H4.39783V20.8761H7.91345V13.0011H10.5502Z" fill="#1B2534"/>
<path d="M82.5033 8.21985C83.2064 7.6925 83.8392 7.05969 84.3314 6.32141C83.6986 6.60266 82.9603 6.8136 82.222 6.88391C82.9955 6.42688 83.558 5.72375 83.8392 4.84485C83.1361 5.26672 82.3275 5.58313 81.5189 5.75891C80.8158 5.02063 79.8666 4.59875 78.8119 4.59875C76.7728 4.59875 75.1205 6.2511 75.1205 8.29016C75.1205 8.57141 75.1556 8.85266 75.226 9.13391C72.1674 8.95813 69.4252 7.48157 67.597 5.26672C67.2806 5.79407 67.1049 6.42688 67.1049 7.13C67.1049 8.39563 67.7377 9.52063 68.7572 10.1886C68.1595 10.1534 67.5619 10.0128 67.0697 9.73157V9.76672C67.0697 11.5597 68.3353 13.0363 70.0228 13.3878C69.7416 13.4581 69.39 13.5284 69.0736 13.5284C68.8275 13.5284 68.6166 13.4933 68.3705 13.4581C68.8275 14.9347 70.1986 15.9894 71.8158 16.0245C70.5502 17.0089 68.9681 17.6066 67.2455 17.6066C66.9291 17.6066 66.6478 17.5714 66.3666 17.5363C67.9838 18.5909 69.9174 19.1886 72.0267 19.1886C78.8119 19.1886 82.5033 13.5988 82.5033 8.71204C82.5033 8.53625 82.5033 8.39563 82.5033 8.21985Z" fill="#1B2534"/>
<path d="M142.007 18.6261V8.11438H138.738V18.6261H142.007ZM140.355 6.70813C141.41 6.70813 142.253 5.82922 142.253 4.77454C142.253 3.755 141.41 2.91125 140.355 2.91125C139.335 2.91125 138.492 3.755 138.492 4.77454C138.492 5.82922 139.335 6.70813 140.355 6.70813ZM154.206 18.6261H154.242V12.8605C154.242 10.048 153.609 7.86829 150.304 7.86829C148.722 7.86829 147.667 8.74719 147.21 9.55579H147.175V8.11438H144.046V18.6261H147.316V13.423C147.316 12.0519 147.562 10.7511 149.249 10.7511C150.937 10.7511 150.972 12.298 150.972 13.5284V18.6261H154.206Z" fill="#1B2534"/>
<path d="M216.867 8.23352C214.492 8.23352 212.599 10.1632 212.599 12.5011C212.599 14.8761 214.492 16.7687 216.867 16.7687C219.204 16.7687 221.134 14.8761 221.134 12.5011C221.134 10.1632 219.204 8.23352 216.867 8.23352ZM216.867 15.2843C215.345 15.2843 214.083 14.0597 214.083 12.5011C214.083 10.9796 215.308 9.755 216.867 9.755C218.388 9.755 219.613 10.9796 219.613 12.5011C219.613 14.0597 218.388 15.2843 216.867 15.2843ZM222.285 8.08508C222.285 7.52844 221.839 7.08313 221.283 7.08313C220.726 7.08313 220.281 7.52844 220.281 8.08508C220.281 8.64172 220.726 9.08704 221.283 9.08704C221.839 9.08704 222.285 8.64172 222.285 8.08508ZM225.105 9.08704C225.031 7.7511 224.734 6.5636 223.769 5.59875C222.804 4.63391 221.617 4.33704 220.281 4.26282C218.908 4.1886 214.788 4.1886 213.415 4.26282C212.079 4.33704 210.929 4.63391 209.927 5.59875C208.962 6.5636 208.665 7.7511 208.591 9.08704C208.517 10.4601 208.517 14.5792 208.591 15.9523C208.665 17.2882 208.962 18.4386 209.927 19.4406C210.929 20.4054 212.079 20.7023 213.415 20.7765C214.788 20.8507 218.908 20.8507 220.281 20.7765C221.617 20.7023 222.804 20.4054 223.769 19.4406C224.734 18.4386 225.031 17.2882 225.105 15.9523C225.179 14.5792 225.179 10.4601 225.105 9.08704ZM223.324 17.3995C223.064 18.1417 222.47 18.6984 221.765 18.9952C220.652 19.4406 218.054 19.3292 216.867 19.3292C215.642 19.3292 213.044 19.4406 211.968 18.9952C211.226 18.6984 210.669 18.1417 210.372 17.3995C209.927 16.3234 210.038 13.7257 210.038 12.5011C210.038 11.3136 209.927 8.71594 210.372 7.60266C210.669 6.89758 211.226 6.34094 211.968 6.04407C213.044 5.59875 215.642 5.71008 216.867 5.71008C218.054 5.71008 220.652 5.59875 221.765 6.04407C222.47 6.30383 223.027 6.89758 223.324 7.60266C223.769 8.71594 223.658 11.3136 223.658 12.5011C223.658 13.7257 223.769 16.3234 223.324 17.3995Z" fill="#1B2534"/>
</svg>
