<svg width="223" height="44" viewBox="0 0 223 44" fill="none" xmlns="http://www.w3.org/2000/svg">
<path d="M58.3216 19.9512C58.2576 20.0686 58.159 20.1272 58.0256 20.1272C57.9456 20.1272 57.855 20.0979 57.7536 20.0392C57.6523 19.9806 57.527 19.9166 57.3776 19.8472C57.2336 19.7726 57.0603 19.7059 56.8576 19.6472C56.655 19.5832 56.415 19.5512 56.1376 19.5512C55.8976 19.5512 55.6816 19.5832 55.4896 19.6472C55.2976 19.7059 55.1323 19.7886 54.9936 19.8952C54.8603 20.0019 54.7563 20.1272 54.6816 20.2712C54.6123 20.4099 54.5776 20.5619 54.5776 20.7272C54.5776 20.9352 54.6363 21.1086 54.7536 21.2472C54.8763 21.3859 55.0363 21.5059 55.2336 21.6072C55.431 21.7086 55.655 21.7992 55.9056 21.8792C56.1563 21.9539 56.4123 22.0366 56.6736 22.1272C56.9403 22.2126 57.199 22.3086 57.4496 22.4152C57.7003 22.5219 57.9243 22.6552 58.1216 22.8152C58.319 22.9752 58.4763 23.1726 58.5936 23.4072C58.7163 23.6366 58.7776 23.9139 58.7776 24.2392C58.7776 24.6126 58.711 24.9592 58.5776 25.2792C58.4443 25.5939 58.247 25.8686 57.9856 26.1032C57.7243 26.3326 57.4043 26.5139 57.0256 26.6472C56.647 26.7806 56.2096 26.8472 55.7136 26.8472C55.1483 26.8472 54.6363 26.7566 54.1776 26.5752C53.719 26.3886 53.3296 26.1512 53.0096 25.8632L53.3456 25.3192C53.3883 25.2499 53.439 25.1966 53.4976 25.1592C53.5563 25.1219 53.631 25.1032 53.7216 25.1032C53.8176 25.1032 53.919 25.1406 54.0256 25.2152C54.1323 25.2899 54.2603 25.3726 54.4096 25.4632C54.5643 25.5539 54.751 25.6366 54.9696 25.7112C55.1883 25.7859 55.4603 25.8232 55.7856 25.8232C56.063 25.8232 56.3056 25.7886 56.5136 25.7192C56.7216 25.6446 56.895 25.5459 57.0336 25.4232C57.1723 25.3006 57.2736 25.1592 57.3376 24.9992C57.407 24.8392 57.4416 24.6686 57.4416 24.4872C57.4416 24.2632 57.3803 24.0792 57.2576 23.9352C57.1403 23.7859 56.983 23.6606 56.7856 23.5592C56.5883 23.4526 56.3616 23.3619 56.1056 23.2872C55.855 23.2072 55.5963 23.1246 55.3296 23.0392C55.0683 22.9539 54.8096 22.8579 54.5536 22.7512C54.303 22.6392 54.079 22.5006 53.8816 22.3352C53.6843 22.1699 53.5243 21.9672 53.4016 21.7272C53.2843 21.4819 53.2256 21.1859 53.2256 20.8392C53.2256 20.5299 53.2896 20.2339 53.4176 19.9512C53.5456 19.6632 53.7323 19.4126 53.9776 19.1992C54.223 18.9806 54.5243 18.8072 54.8816 18.6792C55.239 18.5512 55.647 18.4872 56.1056 18.4872C56.639 18.4872 57.1163 18.5726 57.5376 18.7432C57.9643 18.9086 58.3323 19.1379 58.6416 19.4312L58.3216 19.9512ZM67.1875 18.6152L67.1875 26.7192L66.3395 26.7192C66.1368 26.7192 66.0088 26.6206 65.9555 26.4232L65.8435 25.5512C65.4915 25.9406 65.0968 26.2552 64.6595 26.4952C64.2222 26.7299 63.7208 26.8472 63.1555 26.8472C62.7128 26.8472 62.3208 26.7752 61.9795 26.6312C61.6435 26.4819 61.3608 26.2739 61.1315 26.0072C60.9022 25.7406 60.7288 25.4179 60.6115 25.0392C60.4995 24.6606 60.4435 24.2419 60.4435 23.7832L60.4435 18.6152L61.8675 18.6152L61.8675 23.7832C61.8675 24.3966 62.0062 24.8712 62.2835 25.2072C62.5662 25.5432 62.9955 25.7112 63.5715 25.7112C63.9928 25.7112 64.3848 25.6126 64.7475 25.4152C65.1155 25.2126 65.4542 24.9352 65.7635 24.5832L65.7635 18.6152L67.1875 18.6152ZM70.8774 24.7672C71.1387 25.1192 71.424 25.3672 71.7334 25.5112C72.0427 25.6552 72.3894 25.7272 72.7734 25.7272C73.5307 25.7272 74.112 25.4579 74.5174 24.9192C74.9227 24.3806 75.1254 23.6126 75.1254 22.6152C75.1254 22.0872 75.0774 21.6339 74.9814 21.2552C74.8907 20.8766 74.7574 20.5672 74.5814 20.3272C74.4054 20.0819 74.1894 19.9032 73.9334 19.7912C73.6774 19.6792 73.3867 19.6232 73.0614 19.6232C72.5974 19.6232 72.1894 19.7299 71.8374 19.9432C71.4907 20.1566 71.1707 20.4579 70.8774 20.8472L70.8774 24.7672ZM70.8054 19.8712C71.1467 19.4499 71.5414 19.1112 71.9894 18.8552C72.4374 18.5992 72.9494 18.4712 73.5254 18.4712C73.9947 18.4712 74.4187 18.5619 74.7974 18.7432C75.176 18.9192 75.4987 19.1832 75.7654 19.5352C76.032 19.8819 76.2374 20.3139 76.3814 20.8312C76.5254 21.3486 76.5974 21.9432 76.5974 22.6152C76.5974 23.2126 76.5174 23.7699 76.3574 24.2872C76.1974 24.7992 75.9654 25.2446 75.6614 25.6232C75.3627 25.9966 74.9947 26.2926 74.5574 26.5112C74.1254 26.7246 73.6374 26.8312 73.0934 26.8312C72.5974 26.8312 72.1707 26.7486 71.8134 26.5832C71.4614 26.4126 71.1494 26.1779 70.8774 25.8792L70.8774 29.4632L69.4454 29.4632L69.4454 18.6152L70.3014 18.6152C70.504 18.6152 70.6294 18.7139 70.6774 18.9112L70.8054 19.8712ZM79.8461 24.7672C80.1075 25.1192 80.3928 25.3672 80.7021 25.5112C81.0115 25.6552 81.3581 25.7272 81.7421 25.7272C82.4995 25.7272 83.0808 25.4579 83.4861 24.9192C83.8915 24.3806 84.0941 23.6126 84.0941 22.6152C84.0941 22.0872 84.0461 21.6339 83.9501 21.2552C83.8595 20.8766 83.7261 20.5672 83.5501 20.3272C83.3741 20.0819 83.1581 19.9032 82.9021 19.7912C82.6461 19.6792 82.3555 19.6232 82.0301 19.6232C81.5661 19.6232 81.1581 19.7299 80.8061 19.9432C80.4595 20.1566 80.1395 20.4579 79.8461 20.8472L79.8461 24.7672ZM79.7741 19.8712C80.1155 19.4499 80.5101 19.1112 80.9581 18.8552C81.4061 18.5992 81.9181 18.4712 82.4941 18.4712C82.9635 18.4712 83.3875 18.5619 83.7661 18.7432C84.1448 18.9192 84.4675 19.1832 84.7341 19.5352C85.0008 19.8819 85.2061 20.3139 85.3501 20.8312C85.4941 21.3486 85.5661 21.9432 85.5661 22.6152C85.5661 23.2126 85.4861 23.7699 85.3261 24.2872C85.1661 24.7992 84.9341 25.2446 84.6301 25.6232C84.3315 25.9966 83.9635 26.2926 83.5261 26.5112C83.0941 26.7246 82.6061 26.8312 82.0621 26.8312C81.5661 26.8312 81.1395 26.7486 80.7821 26.5832C80.4301 26.4126 80.1181 26.1779 79.8461 25.8792L79.8461 29.4632L78.4141 29.4632L78.4141 18.6152L79.2701 18.6152C79.4728 18.6152 79.5981 18.7139 79.6461 18.9112L79.7741 19.8712ZM90.7989 18.4872C91.3909 18.4872 91.9242 18.5859 92.3989 18.7832C92.8735 18.9806 93.2789 19.2606 93.6149 19.6232C93.9509 19.9859 94.2069 20.4259 94.3829 20.9432C94.5642 21.4552 94.6549 22.0286 94.6549 22.6632C94.6549 23.3032 94.5642 23.8792 94.3829 24.3912C94.2069 24.9032 93.9509 25.3406 93.6149 25.7032C93.2789 26.0659 92.8735 26.3459 92.3989 26.5432C91.9242 26.7352 91.3909 26.8312 90.7989 26.8312C90.2015 26.8312 89.6629 26.7352 89.1829 26.5432C88.7082 26.3459 88.3029 26.0659 87.9669 25.7032C87.6309 25.3406 87.3722 24.9032 87.1909 24.3912C87.0149 23.8792 86.9269 23.3032 86.9269 22.6632C86.9269 22.0286 87.0149 21.4552 87.1909 20.9432C87.3722 20.4259 87.6309 19.9859 87.9669 19.6232C88.3029 19.2606 88.7082 18.9806 89.1829 18.7832C89.6629 18.5859 90.2015 18.4872 90.7989 18.4872ZM90.7989 25.7192C91.5989 25.7192 92.1962 25.4526 92.5909 24.9192C92.9855 24.3806 93.1829 23.6312 93.1829 22.6712C93.1829 21.7059 92.9855 20.9539 92.5909 20.4152C92.1962 19.8766 91.5989 19.6072 90.7989 19.6072C90.3935 19.6072 90.0389 19.6766 89.7349 19.8152C89.4362 19.9539 89.1855 20.1539 88.9829 20.4152C88.7855 20.6766 88.6362 20.9992 88.5349 21.3832C88.4389 21.7619 88.3909 22.1912 88.3909 22.6712C88.3909 23.6312 88.5882 24.3806 88.9829 24.9192C89.3829 25.4526 89.9882 25.7192 90.7989 25.7192ZM97.813 20.2392C98.069 19.6846 98.3837 19.2526 98.757 18.9432C99.1303 18.6286 99.5863 18.4712 100.125 18.4712C100.296 18.4712 100.458 18.4899 100.613 18.5272C100.773 18.5646 100.914 18.6232 101.037 18.7032L100.933 19.7672C100.901 19.9006 100.821 19.9672 100.693 19.9672C100.618 19.9672 100.509 19.9512 100.365 19.9192C100.221 19.8872 100.058 19.8712 99.877 19.8712C99.621 19.8712 99.3917 19.9086 99.189 19.9832C98.9917 20.0579 98.813 20.1699 98.653 20.3192C98.4983 20.4632 98.357 20.6446 98.229 20.8632C98.1063 21.0766 97.9943 21.3219 97.893 21.5992L97.893 26.7192L96.461 26.7192L96.461 18.6152L97.277 18.6152C97.4317 18.6152 97.5383 18.6446 97.597 18.7032C97.6557 18.7619 97.6957 18.8632 97.717 19.0072L97.813 20.2392ZM104.777 26.8472C104.137 26.8472 103.644 26.6686 103.297 26.3112C102.956 25.9539 102.785 25.4392 102.785 24.7672L102.785 19.8072L101.809 19.8072C101.724 19.8072 101.652 19.7832 101.593 19.7352C101.534 19.6819 101.505 19.6019 101.505 19.4952L101.505 18.9272L102.833 18.7592L103.161 16.2552C103.177 16.1752 103.212 16.1112 103.265 16.0632C103.324 16.0099 103.398 15.9832 103.489 15.9832L104.209 15.9832L104.209 18.7752L106.553 18.7752L106.553 19.8072L104.209 19.8072L104.209 24.6712C104.209 25.0126 104.292 25.2659 104.457 25.4312C104.622 25.5966 104.836 25.6792 105.097 25.6792C105.246 25.6792 105.374 25.6606 105.481 25.6232C105.593 25.5806 105.689 25.5352 105.769 25.4872C105.849 25.4392 105.916 25.3966 105.969 25.3592C106.028 25.3166 106.078 25.2952 106.121 25.2952C106.196 25.2952 106.262 25.3406 106.321 25.4312L106.737 26.1112C106.492 26.3406 106.196 26.5219 105.849 26.6552C105.502 26.7832 105.145 26.8472 104.777 26.8472ZM115.336 20.1432C115.128 20.0952 114.898 20.0712 114.648 20.0712C114.248 20.0712 113.88 20.1566 113.544 20.3272C113.213 20.4926 112.928 20.7112 112.688 20.9832C112.448 21.2552 112.258 21.5672 112.12 21.9192C111.986 22.2712 111.92 22.6312 111.92 22.9992C111.92 23.3832 112.008 23.6926 112.184 23.9272C112.36 24.1566 112.621 24.2712 112.968 24.2712C113.133 24.2712 113.298 24.2446 113.464 24.1912C113.634 24.1379 113.797 24.0446 113.952 23.9112C114.112 23.7779 114.258 23.5966 114.392 23.3672C114.525 23.1379 114.637 22.8499 114.728 22.5032L115.336 20.1432ZM115.832 22.3752C115.725 22.7806 115.674 23.1112 115.68 23.3672C115.685 23.6179 115.725 23.8152 115.8 23.9592C115.88 24.1032 115.989 24.2019 116.128 24.2552C116.266 24.3032 116.418 24.3272 116.584 24.3272C116.845 24.3272 117.093 24.2526 117.328 24.1032C117.562 23.9539 117.768 23.7432 117.944 23.4712C118.125 23.1992 118.266 22.8739 118.368 22.4952C118.474 22.1112 118.528 21.6872 118.528 21.2232C118.528 20.4872 118.41 19.8419 118.176 19.2872C117.941 18.7326 117.616 18.2712 117.2 17.9032C116.789 17.5299 116.301 17.2526 115.736 17.0712C115.176 16.8846 114.57 16.7912 113.92 16.7912C113.205 16.7912 112.536 16.9272 111.912 17.1992C111.288 17.4712 110.744 17.8472 110.28 18.3272C109.816 18.8072 109.448 19.3752 109.176 20.0312C108.909 20.6872 108.776 21.4019 108.776 22.1752C108.776 23.0819 108.917 23.8792 109.2 24.5672C109.488 25.2499 109.877 25.8232 110.368 26.2872C110.864 26.7512 111.445 27.1006 112.112 27.3352C112.778 27.5699 113.493 27.6872 114.256 27.6872C115.066 27.6872 115.781 27.5992 116.4 27.4232C117.024 27.2472 117.562 27.0232 118.016 26.7512C118.122 26.6872 118.216 26.6686 118.296 26.6952C118.376 26.7166 118.434 26.7752 118.472 26.8712L118.68 27.3992C118.104 27.7832 117.45 28.0846 116.72 28.3032C115.994 28.5219 115.173 28.6312 114.256 28.6312C113.328 28.6312 112.466 28.4846 111.672 28.1912C110.877 27.8979 110.186 27.4739 109.6 26.9192C109.018 26.3699 108.56 25.6952 108.224 24.8952C107.893 24.0952 107.728 23.1886 107.728 22.1752C107.728 21.5939 107.8 21.0339 107.944 20.4952C108.093 19.9566 108.301 19.4552 108.568 18.9912C108.834 18.5219 109.154 18.0952 109.528 17.7112C109.901 17.3219 110.317 16.9912 110.776 16.7192C111.234 16.4419 111.728 16.2286 112.256 16.0792C112.789 15.9246 113.344 15.8472 113.92 15.8472C114.41 15.8472 114.89 15.9006 115.36 16.0072C115.829 16.1139 116.272 16.2712 116.688 16.4792C117.109 16.6872 117.493 16.9459 117.84 17.2552C118.192 17.5592 118.496 17.9112 118.752 18.3112C119.008 18.7059 119.205 19.1486 119.344 19.6392C119.488 20.1246 119.56 20.6526 119.56 21.2232C119.56 21.7992 119.477 22.3326 119.312 22.8232C119.152 23.3086 118.928 23.7299 118.64 24.0872C118.357 24.4446 118.021 24.7246 117.632 24.9272C117.242 25.1299 116.824 25.2312 116.376 25.2312C115.97 25.2312 115.634 25.1326 115.368 24.9352C115.106 24.7326 114.938 24.4259 114.864 24.0152C114.56 24.4419 114.226 24.7486 113.864 24.9352C113.501 25.1219 113.109 25.2152 112.688 25.2152C112.373 25.2152 112.096 25.1619 111.856 25.0552C111.621 24.9432 111.426 24.7912 111.272 24.5992C111.117 24.4019 111 24.1699 110.92 23.9032C110.845 23.6366 110.808 23.3486 110.808 23.0392C110.808 22.5859 110.893 22.1299 111.064 21.6712C111.24 21.2072 111.498 20.7912 111.84 20.4232C112.181 20.0499 112.605 19.7459 113.112 19.5112C113.618 19.2766 114.205 19.1592 114.872 19.1592C115.229 19.1592 115.544 19.1886 115.816 19.2472C116.088 19.3006 116.344 19.3806 116.584 19.4872L115.832 22.3752ZM126.694 20.5433C126.427 20.1859 126.139 19.9379 125.83 19.7993C125.521 19.6553 125.174 19.5833 124.79 19.5833C124.038 19.5833 123.459 19.8526 123.054 20.3913C122.649 20.9299 122.446 21.6979 122.446 22.6953C122.446 23.2233 122.491 23.6766 122.582 24.0553C122.673 24.4286 122.806 24.7379 122.982 24.9833C123.158 25.2233 123.374 25.3993 123.63 25.5113C123.886 25.6233 124.177 25.6793 124.502 25.6793C124.971 25.6793 125.379 25.5726 125.726 25.3593C126.078 25.1459 126.401 24.8446 126.694 24.4553L126.694 20.5433ZM128.118 14.9353L128.118 26.7193L127.27 26.7193C127.067 26.7193 126.939 26.6206 126.886 26.4233L126.758 25.4393C126.411 25.8553 126.017 26.1913 125.574 26.4473C125.131 26.7033 124.619 26.8313 124.038 26.8313C123.574 26.8313 123.153 26.7433 122.774 26.5673C122.395 26.3859 122.073 26.1219 121.806 25.7753C121.539 25.4286 121.334 24.9966 121.19 24.4793C121.046 23.9619 120.974 23.3673 120.974 22.6953C120.974 22.0979 121.054 21.5433 121.214 21.0313C121.374 20.5139 121.603 20.0659 121.902 19.6872C122.201 19.3086 122.566 19.0126 122.998 18.7993C123.435 18.5806 123.926 18.4713 124.47 18.4713C124.966 18.4713 125.39 18.5566 125.742 18.7273C126.099 18.8926 126.417 19.1246 126.694 19.4233L126.694 14.9353L128.118 14.9353ZM133.783 18.4873C134.375 18.4873 134.909 18.5859 135.383 18.7833C135.858 18.9806 136.263 19.2606 136.599 19.6233C136.935 19.9859 137.191 20.4259 137.367 20.9433C137.549 21.4553 137.639 22.0286 137.639 22.6633C137.639 23.3033 137.549 23.8793 137.367 24.3913C137.191 24.9033 136.935 25.3406 136.599 25.7033C136.263 26.0659 135.858 26.3459 135.383 26.5433C134.909 26.7353 134.375 26.8313 133.783 26.8313C133.186 26.8313 132.647 26.7353 132.167 26.5433C131.693 26.3459 131.287 26.0659 130.951 25.7033C130.615 25.3406 130.357 24.9033 130.175 24.3913C129.999 23.8793 129.911 23.3033 129.911 22.6633C129.911 22.0286 129.999 21.4553 130.175 20.9433C130.357 20.4259 130.615 19.9859 130.951 19.6233C131.287 19.2606 131.693 18.9806 132.167 18.7833C132.647 18.5859 133.186 18.4873 133.783 18.4873ZM133.783 25.7193C134.583 25.7193 135.181 25.4526 135.575 24.9193C135.97 24.3806 136.167 23.6313 136.167 22.6713C136.167 21.7059 135.97 20.9539 135.575 20.4153C135.181 19.8766 134.583 19.6073 133.783 19.6073C133.378 19.6073 133.023 19.6766 132.719 19.8153C132.421 19.9539 132.17 20.1539 131.967 20.4153C131.77 20.6766 131.621 20.9993 131.519 21.3833C131.423 21.7619 131.375 22.1913 131.375 22.6713C131.375 23.6313 131.573 24.3806 131.967 24.9193C132.367 25.4526 132.973 25.7193 133.783 25.7193ZM145.085 20.0553C145.043 20.1139 145 20.1593 144.957 20.1913C144.915 20.2233 144.856 20.2393 144.781 20.2393C144.701 20.2393 144.613 20.2073 144.517 20.1433C144.421 20.0739 144.301 19.9993 144.157 19.9193C144.019 19.8393 143.845 19.7673 143.637 19.7033C143.435 19.6339 143.184 19.5993 142.885 19.5993C142.485 19.5993 142.133 19.6713 141.829 19.8153C141.525 19.9539 141.269 20.1566 141.061 20.4233C140.859 20.6899 140.704 21.0126 140.597 21.3913C140.496 21.7699 140.445 22.1939 140.445 22.6633C140.445 23.1539 140.501 23.5913 140.613 23.9753C140.725 24.3539 140.883 24.6739 141.085 24.9353C141.293 25.1913 141.541 25.3886 141.829 25.5273C142.123 25.6606 142.451 25.7273 142.813 25.7273C143.16 25.7273 143.445 25.6873 143.669 25.6073C143.893 25.5219 144.077 25.4286 144.221 25.3273C144.371 25.2259 144.493 25.1353 144.589 25.0553C144.691 24.9699 144.789 24.9273 144.885 24.9273C145.003 24.9273 145.093 24.9726 145.157 25.0633L145.557 25.5833C145.381 25.8019 145.181 25.9886 144.957 26.1433C144.733 26.2979 144.491 26.4286 144.229 26.5353C143.973 26.6366 143.704 26.7113 143.421 26.7593C143.139 26.8073 142.851 26.8313 142.557 26.8313C142.051 26.8313 141.579 26.7379 141.141 26.5513C140.709 26.3646 140.333 26.0953 140.013 25.7433C139.693 25.3859 139.443 24.9486 139.261 24.4313C139.08 23.9139 138.989 23.3246 138.989 22.6633C138.989 22.0606 139.072 21.5033 139.237 20.9913C139.408 20.4793 139.653 20.0393 139.973 19.6713C140.299 19.2979 140.696 19.0073 141.165 18.7993C141.64 18.5913 142.184 18.4873 142.797 18.4873C143.368 18.4873 143.869 18.5806 144.301 18.7673C144.739 18.9486 145.125 19.2073 145.461 19.5433L145.085 20.0553ZM149.574 26.8473C148.934 26.8473 148.441 26.6686 148.094 26.3113C147.753 25.9539 147.582 25.4393 147.582 24.7673L147.582 19.8073L146.606 19.8073C146.521 19.8073 146.449 19.7833 146.39 19.7353C146.331 19.6819 146.302 19.6019 146.302 19.4953L146.302 18.9273L147.63 18.7593L147.958 16.2553C147.974 16.1753 148.009 16.1113 148.062 16.0633C148.121 16.0099 148.195 15.9833 148.286 15.9833L149.006 15.9833L149.006 18.7753L151.35 18.7753L151.35 19.8073L149.006 19.8073L149.006 24.6713C149.006 25.0126 149.089 25.2659 149.254 25.4313C149.419 25.5966 149.633 25.6793 149.894 25.6793C150.043 25.6793 150.171 25.6606 150.278 25.6233C150.39 25.5806 150.486 25.5353 150.566 25.4873C150.646 25.4393 150.713 25.3966 150.766 25.3593C150.825 25.3166 150.875 25.2953 150.918 25.2953C150.993 25.2953 151.059 25.3406 151.118 25.4313L151.534 26.1113C151.289 26.3406 150.993 26.5219 150.646 26.6553C150.299 26.7833 149.942 26.8473 149.574 26.8473ZM156.19 18.4873C156.782 18.4873 157.315 18.5859 157.79 18.7833C158.264 18.9806 158.67 19.2606 159.006 19.6233C159.342 19.9859 159.598 20.4259 159.774 20.9433C159.955 21.4553 160.046 22.0286 160.046 22.6633C160.046 23.3033 159.955 23.8793 159.774 24.3913C159.598 24.9033 159.342 25.3406 159.006 25.7033C158.67 26.0659 158.264 26.3459 157.79 26.5433C157.315 26.7353 156.782 26.8313 156.19 26.8313C155.592 26.8313 155.054 26.7353 154.574 26.5433C154.099 26.3459 153.694 26.0659 153.358 25.7033C153.022 25.3406 152.763 24.9033 152.582 24.3913C152.406 23.8793 152.318 23.3033 152.318 22.6633C152.318 22.0286 152.406 21.4553 152.582 20.9433C152.763 20.4259 153.022 19.9859 153.358 19.6233C153.694 19.2606 154.099 18.9806 154.574 18.7833C155.054 18.5859 155.592 18.4873 156.19 18.4873ZM156.19 25.7193C156.99 25.7193 157.587 25.4526 157.982 24.9193C158.376 24.3806 158.574 23.6313 158.574 22.6713C158.574 21.7059 158.376 20.9539 157.982 20.4153C157.587 19.8766 156.99 19.6073 156.19 19.6073C155.784 19.6073 155.43 19.6766 155.126 19.8153C154.827 19.9539 154.576 20.1539 154.374 20.4153C154.176 20.6766 154.027 20.9993 153.926 21.3833C153.83 21.7619 153.782 22.1913 153.782 22.6713C153.782 23.6313 153.979 24.3806 154.374 24.9193C154.774 25.4526 155.379 25.7193 156.19 25.7193ZM163.204 20.2393C163.46 19.6846 163.774 19.2526 164.148 18.9433C164.521 18.6286 164.977 18.4713 165.516 18.4713C165.686 18.4713 165.849 18.4899 166.004 18.5273C166.164 18.5646 166.305 18.6233 166.428 18.7033L166.324 19.7673C166.292 19.9006 166.212 19.9673 166.084 19.9673C166.009 19.9673 165.9 19.9513 165.756 19.9193C165.612 19.8873 165.449 19.8713 165.268 19.8713C165.012 19.8713 164.782 19.9086 164.58 19.9833C164.382 20.0579 164.204 20.1699 164.044 20.3193C163.889 20.4633 163.748 20.6446 163.62 20.8633C163.497 21.0766 163.385 21.3219 163.284 21.5993L163.284 26.7193L161.852 26.7193L161.852 18.6153L162.668 18.6153C162.822 18.6153 162.929 18.6446 162.988 18.7033C163.046 18.7619 163.086 18.8633 163.108 19.0073L163.204 20.2393ZM171.947 23.0713C171.291 23.0926 170.731 23.1459 170.267 23.2313C169.808 23.3113 169.432 23.4179 169.139 23.5513C168.851 23.6846 168.64 23.8419 168.507 24.0233C168.379 24.2046 168.315 24.4073 168.315 24.6313C168.315 24.8446 168.349 25.0286 168.419 25.1833C168.488 25.3379 168.581 25.4659 168.699 25.5673C168.821 25.6633 168.963 25.7353 169.123 25.7833C169.288 25.8259 169.464 25.8473 169.651 25.8473C169.901 25.8473 170.131 25.8233 170.339 25.7753C170.547 25.7219 170.741 25.6473 170.923 25.5513C171.109 25.4553 171.285 25.3406 171.451 25.2073C171.621 25.0739 171.787 24.9219 171.947 24.7513L171.947 23.0713ZM167.347 19.7593C167.795 19.3273 168.277 19.0046 168.795 18.7913C169.312 18.5779 169.885 18.4713 170.515 18.4713C170.968 18.4713 171.371 18.5459 171.723 18.6953C172.075 18.8446 172.371 19.0526 172.611 19.3193C172.851 19.5859 173.032 19.9086 173.155 20.2873C173.277 20.6659 173.339 21.0819 173.339 21.5353L173.339 26.7193L172.707 26.7193C172.568 26.7193 172.461 26.6979 172.387 26.6553C172.312 26.6073 172.253 26.5166 172.211 26.3833L172.051 25.6153C171.837 25.8126 171.629 25.9886 171.427 26.1433C171.224 26.2926 171.011 26.4206 170.787 26.5273C170.563 26.6286 170.323 26.7059 170.067 26.7593C169.816 26.8179 169.536 26.8473 169.227 26.8473C168.912 26.8473 168.616 26.8046 168.339 26.7193C168.061 26.6286 167.819 26.4953 167.611 26.3193C167.408 26.1433 167.245 25.9219 167.123 25.6553C167.005 25.3833 166.947 25.0633 166.947 24.6953C166.947 24.3753 167.035 24.0686 167.211 23.7753C167.387 23.4766 167.672 23.2126 168.067 22.9833C168.461 22.7539 168.976 22.5673 169.611 22.4233C170.245 22.2739 171.024 22.1886 171.947 22.1673L171.947 21.5353C171.947 20.9059 171.811 20.4313 171.539 20.1113C171.267 19.7859 170.869 19.6233 170.347 19.6233C169.995 19.6233 169.699 19.6686 169.459 19.7593C169.224 19.8446 169.019 19.9433 168.843 20.0553C168.672 20.1619 168.523 20.2606 168.395 20.3513C168.272 20.4366 168.149 20.4793 168.027 20.4793C167.931 20.4793 167.848 20.4553 167.779 20.4073C167.709 20.3539 167.651 20.2899 167.603 20.2153L167.347 19.7593ZM177.887 26.8473C177.247 26.8473 176.753 26.6686 176.407 26.3113C176.065 25.9539 175.895 25.4393 175.895 24.7673L175.895 19.8073L174.919 19.8073C174.833 19.8073 174.761 19.7833 174.703 19.7353C174.644 19.6819 174.615 19.6019 174.615 19.4953L174.615 18.9273L175.943 18.7593L176.271 16.2553C176.287 16.1753 176.321 16.1113 176.375 16.0633C176.433 16.0099 176.508 15.9833 176.599 15.9833L177.319 15.9833L177.319 18.7753L179.663 18.7753L179.663 19.8073L177.319 19.8073L177.319 24.6713C177.319 25.0126 177.401 25.2659 177.567 25.4313C177.732 25.5966 177.945 25.6793 178.207 25.6793C178.356 25.6793 178.484 25.6606 178.591 25.6233C178.703 25.5806 178.799 25.5353 178.879 25.4873C178.959 25.4393 179.025 25.3966 179.079 25.3593C179.137 25.3166 179.188 25.2953 179.231 25.2953C179.305 25.2953 179.372 25.3406 179.431 25.4313L179.847 26.1113C179.601 26.3406 179.305 26.5219 178.959 26.6553C178.612 26.7833 178.255 26.8473 177.887 26.8473ZM186.51 21.7833C186.51 21.4526 186.462 21.1513 186.366 20.8793C186.275 20.6019 186.139 20.3646 185.958 20.1673C185.782 19.9646 185.566 19.8099 185.31 19.7033C185.054 19.5913 184.763 19.5353 184.438 19.5353C183.755 19.5353 183.214 19.7353 182.814 20.1353C182.419 20.5299 182.174 21.0793 182.078 21.7833L186.51 21.7833ZM187.662 25.5833C187.486 25.7966 187.275 25.9833 187.03 26.1433C186.785 26.2979 186.521 26.4259 186.238 26.5273C185.961 26.6286 185.673 26.7033 185.374 26.7513C185.075 26.8046 184.779 26.8313 184.486 26.8313C183.926 26.8313 183.409 26.7379 182.934 26.5513C182.465 26.3593 182.057 26.0819 181.71 25.7193C181.369 25.3513 181.102 24.8979 180.91 24.3593C180.718 23.8206 180.622 23.2019 180.622 22.5033C180.622 21.9379 180.707 21.4099 180.878 20.9193C181.054 20.4286 181.305 20.0046 181.63 19.6473C181.955 19.2846 182.353 19.0019 182.822 18.7993C183.291 18.5913 183.819 18.4873 184.406 18.4873C184.891 18.4873 185.339 18.5699 185.75 18.7353C186.166 18.8953 186.523 19.1299 186.822 19.4393C187.126 19.7433 187.363 20.1219 187.534 20.5753C187.705 21.0233 187.79 21.5353 187.79 22.1113C187.79 22.3353 187.766 22.4846 187.718 22.5593C187.67 22.6339 187.579 22.6713 187.446 22.6713L182.03 22.6713C182.046 23.1833 182.115 23.6286 182.238 24.0073C182.366 24.3859 182.542 24.7033 182.766 24.9593C182.99 25.2099 183.257 25.3993 183.566 25.5273C183.875 25.6499 184.222 25.7113 184.606 25.7113C184.963 25.7113 185.27 25.6713 185.526 25.5913C185.787 25.5059 186.011 25.4153 186.198 25.3193C186.385 25.2233 186.539 25.1353 186.662 25.0553C186.79 24.9699 186.899 24.9273 186.99 24.9273C187.107 24.9273 187.198 24.9726 187.262 25.0633L187.662 25.5833ZM189.299 25.8393C189.299 25.7006 189.323 25.5699 189.371 25.4473C189.424 25.3246 189.494 25.2179 189.579 25.1273C189.67 25.0366 189.776 24.9646 189.899 24.9113C190.022 24.8579 190.152 24.8313 190.291 24.8313C190.43 24.8313 190.56 24.8579 190.683 24.9113C190.806 24.9646 190.912 25.0366 191.003 25.1273C191.094 25.2179 191.166 25.3246 191.219 25.4473C191.272 25.5699 191.299 25.7006 191.299 25.8393C191.299 25.9833 191.272 26.1166 191.219 26.2393C191.166 26.3566 191.094 26.4606 191.003 26.5513C190.912 26.6419 190.806 26.7113 190.683 26.7593C190.56 26.8126 190.43 26.8393 190.291 26.8393C190.152 26.8393 190.022 26.8126 189.899 26.7593C189.776 26.7113 189.67 26.6419 189.579 26.5513C189.494 26.4606 189.424 26.3566 189.371 26.2393C189.323 26.1166 189.299 25.9833 189.299 25.8393ZM198.96 20.0553C198.918 20.1139 198.875 20.1593 198.832 20.1913C198.79 20.2233 198.731 20.2393 198.656 20.2393C198.576 20.2393 198.488 20.2073 198.392 20.1433C198.296 20.0739 198.176 19.9993 198.032 19.9193C197.894 19.8393 197.72 19.7673 197.512 19.7033C197.31 19.6339 197.059 19.5993 196.76 19.5993C196.36 19.5993 196.008 19.6713 195.704 19.8153C195.4 19.9539 195.144 20.1566 194.936 20.4233C194.734 20.6899 194.579 21.0126 194.472 21.3913C194.371 21.7699 194.32 22.1939 194.32 22.6633C194.32 23.1539 194.376 23.5913 194.488 23.9753C194.6 24.3539 194.758 24.6739 194.96 24.9353C195.168 25.1913 195.416 25.3886 195.704 25.5273C195.998 25.6606 196.326 25.7273 196.688 25.7273C197.035 25.7273 197.32 25.6873 197.544 25.6073C197.768 25.5219 197.952 25.4286 198.096 25.3273C198.246 25.2259 198.368 25.1353 198.464 25.0553C198.566 24.9699 198.664 24.9273 198.76 24.9273C198.878 24.9273 198.968 24.9726 199.032 25.0633L199.432 25.5833C199.256 25.8019 199.056 25.9886 198.832 26.1433C198.608 26.2979 198.366 26.4286 198.104 26.5353C197.848 26.6366 197.579 26.7113 197.296 26.7593C197.014 26.8073 196.726 26.8313 196.432 26.8313C195.926 26.8313 195.454 26.7379 195.016 26.5513C194.584 26.3646 194.208 26.0953 193.888 25.7433C193.568 25.3859 193.318 24.9486 193.136 24.4313C192.955 23.9139 192.864 23.3246 192.864 22.6633C192.864 22.0606 192.947 21.5033 193.112 20.9913C193.283 20.4793 193.528 20.0393 193.848 19.6713C194.174 19.2979 194.571 19.0073 195.04 18.7993C195.515 18.5913 196.059 18.4873 196.672 18.4873C197.243 18.4873 197.744 18.5806 198.176 18.7673C198.614 18.9486 199 19.2073 199.336 19.5433L198.96 20.0553ZM204.236 18.4873C204.828 18.4873 205.362 18.5859 205.836 18.7833C206.311 18.9806 206.716 19.2606 207.052 19.6233C207.388 19.9859 207.644 20.4259 207.82 20.9433C208.002 21.4553 208.092 22.0286 208.092 22.6633C208.092 23.3033 208.002 23.8793 207.82 24.3913C207.644 24.9033 207.388 25.3406 207.052 25.7033C206.716 26.0659 206.311 26.3459 205.836 26.5433C205.362 26.7353 204.828 26.8313 204.236 26.8313C203.639 26.8313 203.1 26.7353 202.62 26.5433C202.146 26.3459 201.74 26.0659 201.404 25.7033C201.068 25.3406 200.81 24.9033 200.628 24.3913C200.452 23.8793 200.364 23.3033 200.364 22.6633C200.364 22.0286 200.452 21.4553 200.628 20.9433C200.81 20.4259 201.068 19.9859 201.404 19.6233C201.74 19.2606 202.146 18.9806 202.62 18.7833C203.1 18.5859 203.639 18.4873 204.236 18.4873ZM204.236 25.7193C205.036 25.7193 205.634 25.4526 206.028 24.9193C206.423 24.3806 206.62 23.6313 206.62 22.6713C206.62 21.7059 206.423 20.9539 206.028 20.4153C205.634 19.8766 205.036 19.6073 204.236 19.6073C203.831 19.6073 203.476 19.6766 203.172 19.8153C202.874 19.9539 202.623 20.1539 202.42 20.4153C202.223 20.6766 202.074 20.9993 201.972 21.3833C201.876 21.7619 201.828 22.1913 201.828 22.6713C201.828 23.6313 202.026 24.3806 202.42 24.9193C202.82 25.4526 203.426 25.7193 204.236 25.7193ZM209.899 26.7193L209.899 18.6153L210.755 18.6153C210.957 18.6153 211.083 18.7139 211.131 18.9113L211.235 19.7433C211.533 19.3753 211.869 19.0739 212.243 18.8393C212.616 18.6046 213.048 18.4873 213.539 18.4873C214.083 18.4873 214.523 18.6393 214.859 18.9433C215.2 19.2473 215.445 19.6579 215.595 20.1753C215.712 19.8819 215.861 19.6286 216.043 19.4153C216.229 19.2019 216.437 19.0259 216.667 18.8873C216.896 18.7486 217.139 18.6473 217.395 18.5833C217.656 18.5193 217.92 18.4873 218.187 18.4873C218.613 18.4873 218.992 18.5566 219.323 18.6953C219.659 18.8286 219.941 19.0259 220.171 19.2873C220.405 19.5486 220.584 19.8713 220.707 20.2553C220.829 20.6339 220.891 21.0686 220.891 21.5593L220.891 26.7193L219.459 26.7193L219.459 21.5593C219.459 20.9246 219.32 20.4446 219.043 20.1193C218.765 19.7886 218.365 19.6233 217.843 19.6233C217.608 19.6233 217.384 19.6659 217.171 19.7513C216.963 19.8313 216.779 19.9513 216.619 20.1113C216.459 20.2713 216.331 20.4739 216.235 20.7193C216.144 20.9593 216.099 21.2393 216.099 21.5593L216.099 26.7193L214.667 26.7193L214.667 21.5593C214.667 20.9086 214.536 20.4233 214.275 20.1033C214.013 19.7833 213.632 19.6233 213.131 19.6233C212.779 19.6233 212.453 19.7193 212.155 19.9113C211.856 20.0979 211.581 20.3539 211.331 20.6793L211.331 26.7193L209.899 26.7193Z" fill="#545454"/>
<circle cx="22.2087" cy="22.3884" r="21.5574" fill="#0FE3AF"/>
<path d="M29.1428 15.7207H15.9749C15.3931 15.7213 14.8352 15.9457 14.4238 16.3447C14.0123 16.7437 13.7809 17.2846 13.7803 17.8488V26.9694C13.7809 27.5337 14.0123 28.0746 14.4238 28.4736C14.8352 28.8726 15.3931 29.097 15.9749 29.0976H29.1428C29.7246 29.097 30.2825 28.8726 30.6939 28.4736C31.1054 28.0746 31.3368 27.5337 31.3374 26.9694V17.8488C31.3368 17.2846 31.1054 16.7437 30.6939 16.3447C30.2825 15.9457 29.7246 15.7213 29.1428 15.7207V15.7207ZM28.587 19.2409L22.9437 23.4971C22.8336 23.5801 22.6982 23.6251 22.5588 23.6251C22.4195 23.6251 22.284 23.5801 22.174 23.4971L16.5306 19.2409C16.4643 19.1923 16.4086 19.1315 16.3668 19.0619C16.3249 18.9923 16.2978 18.9153 16.2869 18.8354C16.276 18.7555 16.2816 18.6744 16.3033 18.5966C16.325 18.5188 16.3625 18.446 16.4135 18.3824C16.4645 18.3188 16.528 18.2657 16.6004 18.2261C16.6727 18.1865 16.7525 18.1612 16.835 18.1518C16.9175 18.1424 17.0012 18.1489 17.081 18.1711C17.1609 18.1932 17.2355 18.2306 17.3003 18.2809L22.5588 22.2469L27.8174 18.2809C27.9488 18.1846 28.1141 18.1424 28.2775 18.1634C28.4408 18.1843 28.5891 18.2668 28.6903 18.3929C28.7914 18.5191 28.8373 18.6787 28.818 18.8374C28.7986 18.9961 28.7157 19.141 28.587 19.2409Z" fill="#0152A8"/>
</svg>
