<svg width="591" height="106" viewBox="0 0 591 106" fill="none" xmlns="http://www.w3.org/2000/svg">
<path d="M381.514 29.1318C380.129 29.1318 378.776 29.5424 377.625 30.3115C376.474 31.0807 375.576 32.174 375.047 33.4531C374.517 34.7321 374.378 36.1396 374.648 37.4975C374.918 38.8553 375.585 40.1026 376.564 41.0816C377.543 42.0605 378.79 42.7272 380.148 42.9973C381.506 43.2674 382.913 43.1288 384.192 42.599C385.472 42.0692 386.565 41.172 387.334 40.0208C388.103 38.8697 388.514 37.5163 388.514 36.1318C388.51 34.2764 387.771 32.498 386.459 31.186C385.148 29.874 383.369 29.1354 381.514 29.1318ZM384.334 35.6876L381.911 38.3799C381.86 38.435 381.799 38.479 381.731 38.5091C381.662 38.5392 381.588 38.5547 381.514 38.5547C381.439 38.5547 381.365 38.5392 381.297 38.5091C381.228 38.479 381.167 38.435 381.117 38.3799L378.693 35.6876C378.601 35.5817 378.553 35.4437 378.561 35.3031C378.569 35.1625 378.631 35.0306 378.735 34.9355C378.839 34.8405 378.976 34.7899 379.116 34.7946C379.257 34.7993 379.39 34.8589 379.488 34.9607L381.514 37.2088L383.54 34.9607C383.587 34.9068 383.644 34.8628 383.709 34.8314C383.773 34.8 383.843 34.7818 383.915 34.7779C383.987 34.774 384.058 34.7843 384.126 34.8085C384.193 34.8326 384.255 34.8699 384.308 34.9183C384.361 34.9667 384.404 35.0252 384.434 35.0903C384.464 35.1555 384.48 35.2259 384.483 35.2976C384.485 35.3692 384.473 35.4406 384.448 35.5076C384.422 35.5746 384.383 35.6358 384.334 35.6876Z" fill="#0152A8"/>
<path d="M13.5852 41.4229V28.3319H15.1705V34.1615H22.1506V28.3319H23.7358V41.4229H22.1506V35.5677H15.1705V41.4229H13.5852ZM30.6935 41.6274C29.8072 41.6274 29.0295 41.4165 28.3604 40.9946C27.6957 40.5727 27.1758 39.9825 26.8008 39.224C26.43 38.4655 26.2447 37.5791 26.2447 36.5649C26.2447 35.5422 26.43 34.6494 26.8008 33.8866C27.1758 33.1238 27.6957 32.5315 28.3604 32.1096C29.0295 31.6878 29.8072 31.4768 30.6935 31.4768C31.5799 31.4768 32.3555 31.6878 33.0202 32.1096C33.6893 32.5315 34.2092 33.1238 34.5799 33.8866C34.9549 34.6494 35.1424 35.5422 35.1424 36.5649C35.1424 37.5791 34.9549 38.4655 34.5799 39.224C34.2092 39.9825 33.6893 40.5727 33.0202 40.9946C32.3555 41.4165 31.5799 41.6274 30.6935 41.6274ZM30.6935 40.2723C31.3668 40.2723 31.9208 40.0997 32.3555 39.7545C32.7901 39.4094 33.1119 38.9555 33.3207 38.393C33.5295 37.8305 33.6339 37.2211 33.6339 36.5649C33.6339 35.9086 33.5295 35.2971 33.3207 34.7304C33.1119 34.1636 32.7901 33.7055 32.3555 33.3561C31.9208 33.0067 31.3668 32.8319 30.6935 32.8319C30.0202 32.8319 29.4663 33.0067 29.0316 33.3561C28.5969 33.7055 28.2752 34.1636 28.0664 34.7304C27.8576 35.2971 27.7532 35.9086 27.7532 36.5649C27.7532 37.2211 27.8576 37.8305 28.0664 38.393C28.2752 38.9555 28.5969 39.4094 29.0316 39.7545C29.4663 40.0997 30.0202 40.2723 30.6935 40.2723ZM37.4451 41.4229V31.6047H38.9025V33.1388H39.0304C39.2349 32.6146 39.5652 32.2077 40.0211 31.9179C40.4771 31.6238 41.0247 31.4768 41.6639 31.4768C42.3116 31.4768 42.8507 31.6238 43.2811 31.9179C43.7157 32.2077 44.0545 32.6146 44.2974 33.1388H44.3997C44.6511 32.6317 45.0282 32.229 45.5311 31.9307C46.0339 31.6281 46.6369 31.4768 47.34 31.4768C48.2179 31.4768 48.9359 31.7517 49.4941 32.3014C50.0524 32.8469 50.3315 33.697 50.3315 34.8518V41.4229H48.823V34.8518C48.823 34.1274 48.6248 33.6096 48.2285 33.2986C47.8322 32.9875 47.3656 32.8319 46.8287 32.8319C46.1383 32.8319 45.6035 33.0407 45.2243 33.4584C44.845 33.8717 44.6554 34.3959 44.6554 35.0308V41.4229H43.1213V34.6984C43.1213 34.1402 42.9402 33.6906 42.5779 33.3497C42.2157 33.0045 41.7491 32.8319 41.1781 32.8319C40.786 32.8319 40.4196 32.9363 40.0787 33.1452C39.742 33.354 39.4693 33.6437 39.2605 34.0145C39.0559 34.3809 38.9537 34.805 38.9537 35.2865V41.4229H37.4451ZM57.2061 41.6274C56.2601 41.6274 55.4441 41.4186 54.758 41.001C54.0762 40.5791 53.5499 39.991 53.1792 39.2368C52.8127 38.4782 52.6294 37.5961 52.6294 36.5905C52.6294 35.5848 52.8127 34.6984 53.1792 33.9314C53.5499 33.1601 54.0655 32.5592 54.726 32.1288C55.3908 31.6942 56.1664 31.4768 57.0527 31.4768C57.5641 31.4768 58.0691 31.5621 58.5676 31.7325C59.0662 31.903 59.5201 32.18 59.9292 32.5635C60.3382 32.9427 60.6642 33.4456 60.9071 34.072C61.15 34.6984 61.2715 35.4697 61.2715 36.3859V37.0251H53.7033V35.7211H59.7374C59.7374 35.1672 59.6266 34.6729 59.405 34.2382C59.1877 33.8035 58.8766 33.4605 58.4718 33.2091C58.0712 32.9577 57.5982 32.8319 57.0527 32.8319C56.4519 32.8319 55.932 32.9811 55.4931 33.2794C55.0584 33.5734 54.7239 33.9569 54.4895 34.43C54.2551 34.903 54.138 35.4101 54.138 35.9513V36.8206C54.138 37.5621 54.2658 38.1906 54.5215 38.7062C54.7814 39.2176 55.1415 39.6075 55.6017 39.876C56.062 40.1402 56.5968 40.2723 57.2061 40.2723C57.6025 40.2723 57.9604 40.2169 58.28 40.1061C58.6039 39.991 58.883 39.8206 59.1174 39.5947C59.3517 39.3646 59.5328 39.0791 59.6607 38.7382L61.1181 39.1473C60.9647 39.6416 60.7069 40.0763 60.3446 40.4513C59.9824 40.822 59.535 41.1118 59.0023 41.3206C58.4696 41.5251 57.8709 41.6274 57.2061 41.6274Z" fill="#0152A8"/>
<path d="M109.87 41.4229H108.208L113.015 28.3319H114.651L119.458 41.4229H117.796L113.884 30.403H113.782L109.87 41.4229ZM110.484 36.3092H117.183V37.7155H110.484V36.3092ZM121.497 41.4229V28.3319H123.006V33.1643H123.134C123.244 32.9939 123.398 32.7765 123.594 32.5123C123.794 32.2439 124.08 32.0052 124.45 31.7964C124.825 31.5834 125.333 31.4768 125.972 31.4768C126.798 31.4768 127.527 31.6835 128.158 32.0969C128.789 32.5102 129.281 33.0961 129.634 33.8547C129.988 34.6132 130.165 35.5081 130.165 36.5393C130.165 37.5791 129.988 38.4804 129.634 39.2432C129.281 40.0017 128.791 40.5898 128.164 41.0074C127.538 41.4207 126.816 41.6274 125.997 41.6274C125.367 41.6274 124.862 41.523 124.482 41.3142C124.103 41.1011 123.811 40.8604 123.607 40.5919C123.402 40.3192 123.244 40.0933 123.134 39.9143H122.955V41.4229H121.497ZM122.98 36.5138C122.98 37.2552 123.089 37.9094 123.306 38.4761C123.524 39.0386 123.841 39.4797 124.259 39.7993C124.676 40.1146 125.188 40.2723 125.793 40.2723C126.423 40.2723 126.95 40.1061 127.372 39.7737C127.798 39.4371 128.117 38.9854 128.33 38.4186C128.548 37.8476 128.656 37.2126 128.656 36.5138C128.656 35.8234 128.55 35.2013 128.337 34.6473C128.128 34.089 127.811 33.648 127.384 33.3241C126.963 32.996 126.432 32.8319 125.793 32.8319C125.179 32.8319 124.664 32.9875 124.246 33.2986C123.828 33.6054 123.513 34.0358 123.3 34.5898C123.087 35.1395 122.98 35.7808 122.98 36.5138ZM136.461 41.6274C135.575 41.6274 134.797 41.4165 134.128 40.9946C133.463 40.5727 132.943 39.9825 132.568 39.224C132.198 38.4655 132.012 37.5791 132.012 36.5649C132.012 35.5422 132.198 34.6494 132.568 33.8866C132.943 33.1238 133.463 32.5315 134.128 32.1096C134.797 31.6878 135.575 31.4768 136.461 31.4768C137.347 31.4768 138.123 31.6878 138.788 32.1096C139.457 32.5315 139.977 33.1238 140.347 33.8866C140.722 34.6494 140.91 35.5422 140.91 36.5649C140.91 37.5791 140.722 38.4655 140.347 39.224C139.977 39.9825 139.457 40.5727 138.788 40.9946C138.123 41.4165 137.347 41.6274 136.461 41.6274ZM136.461 40.2723C137.134 40.2723 137.688 40.0997 138.123 39.7545C138.558 39.4094 138.879 38.9555 139.088 38.393C139.297 37.8305 139.401 37.2211 139.401 36.5649C139.401 35.9086 139.297 35.2971 139.088 34.7304C138.879 34.1636 138.558 33.7055 138.123 33.3561C137.688 33.0067 137.134 32.8319 136.461 32.8319C135.788 32.8319 135.234 33.0067 134.799 33.3561C134.365 33.7055 134.043 34.1636 133.834 34.7304C133.625 35.2971 133.521 35.9086 133.521 36.5649C133.521 37.2211 133.625 37.8305 133.834 38.393C134.043 38.9555 134.365 39.4094 134.799 39.7545C135.234 40.0997 135.788 40.2723 136.461 40.2723ZM149.4 37.4086V31.6047H150.909V41.4229H149.4V39.7609H149.298C149.068 40.2595 148.71 40.6835 148.224 41.0329C147.738 41.3781 147.125 41.5507 146.383 41.5507C145.77 41.5507 145.224 41.4165 144.747 41.148C144.27 40.8753 143.895 40.4662 143.622 39.9207C143.349 39.371 143.213 38.6785 143.213 37.8433V31.6047H144.721V37.741C144.721 38.4569 144.922 39.028 145.322 39.4541C145.727 39.8802 146.243 40.0933 146.869 40.0933C147.244 40.0933 147.625 39.9974 148.013 39.8057C148.405 39.6139 148.733 39.3199 148.998 38.9236C149.266 38.5273 149.4 38.0223 149.4 37.4086ZM157.942 31.6047V32.8831H152.854V31.6047H157.942ZM154.336 29.2524H155.845V38.6104C155.845 39.0365 155.907 39.3561 156.03 39.5692C156.158 39.778 156.32 39.9186 156.516 39.991C156.716 40.0592 156.927 40.0933 157.149 40.0933C157.315 40.0933 157.452 40.0848 157.558 40.0677C157.665 40.0464 157.75 40.0294 157.814 40.0166L158.121 41.3717C158.018 41.4101 157.876 41.4484 157.692 41.4868C157.509 41.5294 157.277 41.5507 156.996 41.5507C156.569 41.5507 156.152 41.4591 155.743 41.2758C155.338 41.0926 155.001 40.8135 154.733 40.4385C154.469 40.0635 154.336 39.5905 154.336 39.0194V29.2524ZM213.137 31.6047C213.06 30.9569 212.749 30.4541 212.204 30.0961C211.658 29.7382 210.989 29.5592 210.197 29.5592C209.617 29.5592 209.11 29.653 208.675 29.8405C208.245 30.028 207.908 30.2858 207.665 30.6139C207.427 30.942 207.307 31.3149 207.307 31.7325C207.307 32.0819 207.39 32.3824 207.557 32.6338C207.727 32.8809 207.944 33.0876 208.209 33.2538C208.473 33.4157 208.75 33.55 209.04 33.6565C209.329 33.7588 209.596 33.8419 209.839 33.9058L211.168 34.2638C211.509 34.3532 211.888 34.4768 212.306 34.6345C212.728 34.7922 213.131 35.0074 213.514 35.2801C213.902 35.5486 214.221 35.8937 214.473 36.3156C214.724 36.7375 214.85 37.2552 214.85 37.8689C214.85 38.5763 214.665 39.2155 214.294 39.7865C213.927 40.3575 213.39 40.8113 212.683 41.148C211.98 41.4846 211.126 41.653 210.12 41.653C209.182 41.653 208.371 41.5017 207.684 41.1991C207.003 40.8966 206.466 40.4747 206.074 39.9335C205.686 39.3923 205.466 38.7638 205.415 38.0479H207.052C207.094 38.5422 207.26 38.9513 207.55 39.2751C207.844 39.5947 208.215 39.8334 208.662 39.991C209.114 40.1444 209.6 40.2211 210.12 40.2211C210.725 40.2211 211.268 40.1231 211.75 39.9271C212.231 39.7268 212.613 39.4498 212.894 39.0961C213.175 38.7382 213.316 38.3206 213.316 37.8433C213.316 37.4086 213.194 37.055 212.952 36.7822C212.709 36.5095 212.389 36.2879 211.993 36.1175C211.596 35.947 211.168 35.7979 210.708 35.67L209.097 35.2098C208.074 34.9157 207.265 34.496 206.668 33.9506C206.072 33.4051 205.773 32.6913 205.773 31.8092C205.773 31.0763 205.971 30.4371 206.368 29.8916C206.768 29.3419 207.305 28.9157 207.979 28.6132C208.656 28.3064 209.412 28.153 210.248 28.153C211.091 28.153 211.841 28.3042 212.498 28.6068C213.154 28.9051 213.674 29.3142 214.057 29.8341C214.445 30.354 214.65 30.9442 214.671 31.6047H213.137ZM221.368 41.6274C220.422 41.6274 219.606 41.4186 218.92 41.001C218.238 40.5791 217.712 39.991 217.341 39.2368C216.975 38.4782 216.792 37.5961 216.792 36.5905C216.792 35.5848 216.975 34.6984 217.341 33.9314C217.712 33.1601 218.228 32.5592 218.888 32.1288C219.553 31.6942 220.328 31.4768 221.215 31.4768C221.726 31.4768 222.231 31.5621 222.73 31.7325C223.228 31.903 223.682 32.18 224.091 32.5635C224.5 32.9427 224.826 33.4456 225.069 34.072C225.312 34.6984 225.434 35.4697 225.434 36.3859V37.0251H217.865V35.7211H223.9C223.9 35.1672 223.789 34.6729 223.567 34.2382C223.35 33.8035 223.039 33.4605 222.634 33.2091C222.233 32.9577 221.76 32.8319 221.215 32.8319C220.614 32.8319 220.094 32.9811 219.655 33.2794C219.221 33.5734 218.886 33.9569 218.652 34.43C218.417 34.903 218.3 35.4101 218.3 35.9513V36.8206C218.3 37.5621 218.428 38.1906 218.684 38.7062C218.944 39.2176 219.304 39.6075 219.764 39.876C220.224 40.1402 220.759 40.2723 221.368 40.2723C221.765 40.2723 222.123 40.2169 222.442 40.1061C222.766 39.991 223.045 39.8206 223.279 39.5947C223.514 39.3646 223.695 39.0791 223.823 38.7382L225.28 39.1473C225.127 39.6416 224.869 40.0763 224.507 40.4513C224.145 40.822 223.697 41.1118 223.164 41.3206C222.632 41.5251 222.033 41.6274 221.368 41.6274ZM227.728 41.4229V31.6047H229.186V33.0876H229.288C229.467 32.6018 229.791 32.2077 230.26 31.9051C230.728 31.6025 231.257 31.4513 231.845 31.4513C231.956 31.4513 232.094 31.4534 232.26 31.4577C232.426 31.4619 232.552 31.4683 232.637 31.4768V33.0109C232.586 32.9981 232.469 32.979 232.286 32.9534C232.107 32.9236 231.917 32.9086 231.717 32.9086C231.24 32.9086 230.814 33.0088 230.439 33.2091C230.068 33.4051 229.774 33.6778 229.556 34.0273C229.343 34.3724 229.237 34.7666 229.237 35.2098V41.4229H227.728ZM242.753 31.6047L239.122 41.4229H237.588L233.957 31.6047H235.594L238.304 39.4285H238.406L241.116 31.6047H242.753ZM244.744 41.4229V31.6047H246.252V41.4229H244.744ZM245.511 29.9683C245.217 29.9683 244.963 29.8682 244.75 29.6679C244.542 29.4676 244.437 29.2268 244.437 28.9456C244.437 28.6643 244.542 28.4236 244.75 28.2233C244.963 28.023 245.217 27.9229 245.511 27.9229C245.805 27.9229 246.056 28.023 246.265 28.2233C246.478 28.4236 246.585 28.6643 246.585 28.9456C246.585 29.2268 246.478 29.4676 246.265 29.6679C246.056 29.8682 245.805 29.9683 245.511 29.9683ZM253.004 41.6274C252.084 41.6274 251.291 41.4101 250.626 40.9754C249.961 40.5407 249.45 39.942 249.092 39.1792C248.734 38.4165 248.555 37.545 248.555 36.5649C248.555 35.5677 248.738 34.6878 249.105 33.925C249.476 33.1579 249.991 32.5592 250.652 32.1288C251.317 31.6942 252.092 31.4768 252.979 31.4768C253.669 31.4768 254.291 31.6047 254.845 31.8604C255.399 32.116 255.853 32.474 256.206 32.9342C256.56 33.3944 256.78 33.9314 256.865 34.545H255.356C255.241 34.0976 254.986 33.7013 254.589 33.3561C254.197 33.0067 253.669 32.8319 253.004 32.8319C252.416 32.8319 251.9 32.9854 251.457 33.2922C251.018 33.5947 250.675 34.023 250.428 34.577C250.185 35.1267 250.064 35.7723 250.064 36.5138C250.064 37.2723 250.183 37.9328 250.422 38.4953C250.665 39.0578 251.006 39.4946 251.444 39.8057C251.888 40.1167 252.407 40.2723 253.004 40.2723C253.396 40.2723 253.752 40.2041 254.072 40.0677C254.391 39.9314 254.662 39.7354 254.883 39.4797C255.105 39.224 255.263 38.9172 255.356 38.5592H256.865C256.78 39.1388 256.569 39.6608 256.232 40.1253C255.9 40.5855 255.459 40.952 254.909 41.2247C254.363 41.4932 253.729 41.6274 253.004 41.6274ZM263.187 41.6274C262.241 41.6274 261.425 41.4186 260.738 41.001C260.057 40.5791 259.53 39.991 259.16 39.2368C258.793 38.4782 258.61 37.5961 258.61 36.5905C258.61 35.5848 258.793 34.6984 259.16 33.9314C259.53 33.1601 260.046 32.5592 260.706 32.1288C261.371 31.6942 262.147 31.4768 263.033 31.4768C263.545 31.4768 264.05 31.5621 264.548 31.7325C265.047 31.903 265.501 32.18 265.91 32.5635C266.319 32.9427 266.645 33.4456 266.888 34.072C267.131 34.6984 267.252 35.4697 267.252 36.3859V37.0251H259.684V35.7211H265.718C265.718 35.1672 265.607 34.6729 265.385 34.2382C265.168 33.8035 264.857 33.4605 264.452 33.2091C264.052 32.9577 263.579 32.8319 263.033 32.8319C262.432 32.8319 261.912 32.9811 261.474 33.2794C261.039 33.5734 260.704 33.9569 260.47 34.43C260.236 34.903 260.118 35.4101 260.118 35.9513V36.8206C260.118 37.5621 260.246 38.1906 260.502 38.7062C260.762 39.2176 261.122 39.6075 261.582 39.876C262.042 40.1402 262.577 40.2723 263.187 40.2723C263.583 40.2723 263.941 40.2169 264.26 40.1061C264.584 39.991 264.863 39.8206 265.098 39.5947C265.332 39.3646 265.513 39.0791 265.641 38.7382L267.099 39.1473C266.945 39.6416 266.687 40.0763 266.325 40.4513C265.963 40.822 265.515 41.1118 264.983 41.3206C264.45 41.5251 263.851 41.6274 263.187 41.6274ZM315.314 41.4229V28.3319H319.737C320.764 28.3319 321.604 28.5173 322.256 28.888C322.912 29.2545 323.398 29.751 323.713 30.3774C324.028 31.0038 324.186 31.7027 324.186 32.474C324.186 33.2453 324.028 33.9463 323.713 34.577C323.402 35.2077 322.92 35.7105 322.268 36.0855C321.616 36.4562 320.781 36.6416 319.763 36.6416H316.592V35.2354H319.711C320.415 35.2354 320.979 35.1139 321.405 34.871C321.831 34.6281 322.14 34.3 322.332 33.8866C322.528 33.469 322.626 32.9981 322.626 32.474C322.626 31.9498 322.528 31.4811 322.332 31.0677C322.14 30.6544 321.829 30.3305 321.399 30.0961C320.969 29.8575 320.398 29.7382 319.686 29.7382H316.899V41.4229H315.314ZM329.424 41.653C328.802 41.653 328.237 41.5358 327.73 41.3014C327.223 41.0628 326.82 40.7197 326.522 40.2723C326.224 39.8206 326.075 39.2751 326.075 38.6359C326.075 38.0734 326.186 37.6175 326.407 37.268C326.629 36.9143 326.925 36.6373 327.296 36.4371C327.666 36.2368 328.075 36.0876 328.523 35.9896C328.975 35.8873 329.428 35.8064 329.884 35.7467C330.481 35.67 330.965 35.6125 331.335 35.5741C331.71 35.5315 331.983 35.4612 332.154 35.3632C332.328 35.2652 332.416 35.0947 332.416 34.8518V34.8007C332.416 34.17 332.243 33.68 331.898 33.3305C331.557 32.9811 331.039 32.8064 330.345 32.8064C329.624 32.8064 329.06 32.964 328.651 33.2794C328.242 33.5947 327.954 33.9314 327.788 34.2893L326.356 33.778C326.612 33.1814 326.953 32.7169 327.379 32.3845C327.809 32.0479 328.278 31.8135 328.785 31.6814C329.296 31.545 329.799 31.4768 330.294 31.4768C330.609 31.4768 330.971 31.5152 331.38 31.5919C331.794 31.6643 332.192 31.8156 332.575 32.0457C332.963 32.2758 333.285 32.6231 333.541 33.0876C333.796 33.5521 333.924 34.1743 333.924 34.9541V41.4229H332.416V40.0933H332.339C332.237 40.3064 332.066 40.5344 331.828 40.7773C331.589 41.0202 331.271 41.2268 330.875 41.3973C330.479 41.5677 329.995 41.653 329.424 41.653ZM329.654 40.2979C330.251 40.2979 330.754 40.1807 331.163 39.9463C331.576 39.7119 331.887 39.4094 332.096 39.0386C332.309 38.6679 332.416 38.278 332.416 37.8689V36.4882C332.352 36.5649 332.211 36.6352 331.994 36.6991C331.781 36.7588 331.534 36.8121 331.252 36.8589C330.975 36.9015 330.705 36.9399 330.441 36.974C330.181 37.0038 329.97 37.0294 329.808 37.0507C329.416 37.1018 329.049 37.1849 328.708 37.3C328.372 37.4108 328.099 37.5791 327.89 37.805C327.686 38.0265 327.583 38.3291 327.583 38.7126C327.583 39.2368 327.777 39.6331 328.165 39.9015C328.557 40.1657 329.053 40.2979 329.654 40.2979ZM340.641 45.3092C339.912 45.3092 339.286 45.2155 338.761 45.028C338.237 44.8447 337.8 44.6018 337.451 44.2993C337.106 44.001 336.831 43.6814 336.626 43.3405L337.828 42.4967C337.964 42.6757 338.137 42.8802 338.346 43.1104C338.555 43.3447 338.84 43.5471 339.202 43.7176C339.569 43.8923 340.048 43.9797 340.641 43.9797C341.433 43.9797 342.087 43.7879 342.603 43.4044C343.119 43.0209 343.376 42.42 343.376 41.6018V39.6075H343.249C343.138 39.7865 342.98 40.0081 342.776 40.2723C342.575 40.5322 342.286 40.7645 341.906 40.969C341.531 41.1693 341.024 41.2694 340.385 41.2694C339.592 41.2694 338.881 41.0819 338.25 40.7069C337.624 40.3319 337.127 39.7865 336.761 39.0706C336.398 38.3547 336.217 37.4854 336.217 36.4626C336.217 35.4569 336.394 34.5812 336.748 33.8355C337.102 33.0855 337.594 32.5059 338.224 32.0969C338.855 31.6835 339.584 31.4768 340.411 31.4768C341.05 31.4768 341.557 31.5834 341.932 31.7964C342.311 32.0052 342.601 32.2439 342.801 32.5123C343.006 32.7765 343.163 32.9939 343.274 33.1643H343.428V31.6047H344.885V41.7041C344.885 42.5479 344.693 43.2339 344.31 43.7623C343.93 44.295 343.419 44.6849 342.776 44.9321C342.136 45.1835 341.425 45.3092 340.641 45.3092ZM340.589 39.9143C341.195 39.9143 341.706 39.7758 342.124 39.4988C342.541 39.2219 342.859 38.8234 343.076 38.3035C343.293 37.7836 343.402 37.1615 343.402 36.4371C343.402 35.7297 343.295 35.1054 343.082 34.5642C342.869 34.023 342.554 33.599 342.136 33.2922C341.719 32.9854 341.203 32.8319 340.589 32.8319C339.95 32.8319 339.418 32.9939 338.991 33.3177C338.57 33.6416 338.252 34.0763 338.039 34.6217C337.83 35.1672 337.726 35.7723 337.726 36.4371C337.726 37.1189 337.832 37.7219 338.045 38.246C338.263 38.7659 338.582 39.175 339.004 39.4733C339.43 39.7673 339.959 39.9143 340.589 39.9143ZM351.763 41.6274C350.817 41.6274 350.001 41.4186 349.315 41.001C348.633 40.5791 348.107 39.991 347.736 39.2368C347.369 38.4782 347.186 37.5961 347.186 36.5905C347.186 35.5848 347.369 34.6984 347.736 33.9314C348.107 33.1601 348.622 32.5592 349.283 32.1288C349.947 31.6942 350.723 31.4768 351.609 31.4768C352.121 31.4768 352.626 31.5621 353.124 31.7325C353.623 31.903 354.077 32.18 354.486 32.5635C354.895 32.9427 355.221 33.4456 355.464 34.072C355.707 34.6984 355.828 35.4697 355.828 36.3859V37.0251H348.26V35.7211H354.294C354.294 35.1672 354.183 34.6729 353.962 34.2382C353.744 33.8035 353.433 33.4605 353.028 33.2091C352.628 32.9577 352.155 32.8319 351.609 32.8319C351.009 32.8319 350.489 32.9811 350.05 33.2794C349.615 33.5734 349.281 33.9569 349.046 34.43C348.812 34.903 348.695 35.4101 348.695 35.9513V36.8206C348.695 37.5621 348.822 38.1906 349.078 38.7062C349.338 39.2176 349.698 39.6075 350.158 39.876C350.619 40.1402 351.153 40.2723 351.763 40.2723C352.159 40.2723 352.517 40.2169 352.837 40.1061C353.161 39.991 353.44 39.8206 353.674 39.5947C353.908 39.3646 354.089 39.0791 354.217 38.7382L355.675 39.1473C355.521 39.6416 355.263 40.0763 354.901 40.4513C354.539 40.822 354.092 41.1118 353.559 41.3206C353.026 41.5251 352.428 41.6274 351.763 41.6274ZM365.077 33.8035L363.722 34.1871C363.637 33.9612 363.511 33.7417 363.345 33.5287C363.183 33.3113 362.962 33.1324 362.68 32.9917C362.399 32.8511 362.039 32.7808 361.6 32.7808C360.999 32.7808 360.499 32.9193 360.098 33.1963C359.702 33.469 359.504 33.8163 359.504 34.2382C359.504 34.6132 359.64 34.9094 359.913 35.1267C360.185 35.344 360.612 35.5251 361.191 35.67L362.648 36.028C363.526 36.241 364.18 36.567 364.611 37.0059C365.041 37.4406 365.256 38.001 365.256 38.6871C365.256 39.2496 365.094 39.7524 364.771 40.1956C364.451 40.6388 364.004 40.9882 363.428 41.2439C362.853 41.4996 362.184 41.6274 361.421 41.6274C360.42 41.6274 359.591 41.4101 358.935 40.9754C358.278 40.5407 357.863 39.9058 357.688 39.0706L359.12 38.7126C359.256 39.241 359.514 39.6373 359.893 39.9015C360.277 40.1657 360.778 40.2979 361.396 40.2979C362.099 40.2979 362.657 40.1487 363.07 39.8504C363.488 39.5479 363.697 39.1856 363.697 38.7638C363.697 38.4229 363.577 38.1373 363.339 37.9072C363.1 37.6729 362.734 37.4981 362.239 37.3831L360.603 36.9996C359.704 36.7865 359.043 36.4562 358.621 36.0088C358.204 35.5571 357.995 34.9925 357.995 34.3149C357.995 33.7609 358.151 33.2709 358.462 32.8447C358.777 32.4186 359.205 32.0841 359.746 31.8412C360.292 31.5983 360.91 31.4768 361.6 31.4768C362.572 31.4768 363.335 31.6899 363.888 32.116C364.447 32.5422 364.843 33.1047 365.077 33.8035ZM423.828 32.4229H422.243C422.149 31.9669 421.985 31.5663 421.751 31.2211C421.521 30.876 421.24 30.5862 420.907 30.3518C420.579 30.1132 420.215 29.9342 419.814 29.8149C419.414 29.6956 418.996 29.6359 418.561 29.6359C417.769 29.6359 417.051 29.8362 416.407 30.2368C415.768 30.6373 415.259 31.2275 414.879 32.0074C414.504 32.7872 414.317 33.7439 414.317 34.8774C414.317 36.0109 414.504 36.9676 414.879 37.7474C415.259 38.5273 415.768 39.1175 416.407 39.518C417.051 39.9186 417.769 40.1189 418.561 40.1189C418.996 40.1189 419.414 40.0592 419.814 39.9399C420.215 39.8206 420.579 39.6437 420.907 39.4094C421.24 39.1707 421.521 38.8788 421.751 38.5336C421.985 38.1842 422.149 37.7836 422.243 37.3319H423.828C423.709 38.001 423.492 38.5997 423.176 39.1281C422.861 39.6565 422.469 40.1061 422 40.4768C421.531 40.8433 421.005 41.1224 420.421 41.3142C419.842 41.5059 419.222 41.6018 418.561 41.6018C417.445 41.6018 416.452 41.3291 415.583 40.7836C414.713 40.2382 414.029 39.4626 413.531 38.4569C413.032 37.4513 412.783 36.2581 412.783 34.8774C412.783 33.4967 413.032 32.3035 413.531 31.2979C414.029 30.2922 414.713 29.5166 415.583 28.9711C416.452 28.4257 417.445 28.153 418.561 28.153C419.222 28.153 419.842 28.2488 420.421 28.4406C421.005 28.6324 421.531 28.9136 422 29.2844C422.469 29.6508 422.861 30.0983 423.176 30.6267C423.492 31.1508 423.709 31.7496 423.828 32.4229ZM430.174 41.6274C429.288 41.6274 428.51 41.4165 427.841 40.9946C427.176 40.5727 426.656 39.9825 426.281 39.224C425.911 38.4655 425.725 37.5791 425.725 36.5649C425.725 35.5422 425.911 34.6494 426.281 33.8866C426.656 33.1238 427.176 32.5315 427.841 32.1096C428.51 31.6878 429.288 31.4768 430.174 31.4768C431.06 31.4768 431.836 31.6878 432.501 32.1096C433.17 32.5315 433.69 33.1238 434.06 33.8866C434.435 34.6494 434.623 35.5422 434.623 36.5649C434.623 37.5791 434.435 38.4655 434.06 39.224C433.69 39.9825 433.17 40.5727 432.501 40.9946C431.836 41.4165 431.06 41.6274 430.174 41.6274ZM430.174 40.2723C430.847 40.2723 431.401 40.0997 431.836 39.7545C432.271 39.4094 432.592 38.9555 432.801 38.393C433.01 37.8305 433.114 37.2211 433.114 36.5649C433.114 35.9086 433.01 35.2971 432.801 34.7304C432.592 34.1636 432.271 33.7055 431.836 33.3561C431.401 33.0067 430.847 32.8319 430.174 32.8319C429.501 32.8319 428.947 33.0067 428.512 33.3561C428.077 33.7055 427.756 34.1636 427.547 34.7304C427.338 35.2971 427.234 35.9086 427.234 36.5649C427.234 37.2211 427.338 37.8305 427.547 38.393C427.756 38.9555 428.077 39.4094 428.512 39.7545C428.947 40.0997 429.501 40.2723 430.174 40.2723ZM438.434 35.5166V41.4229H436.926V31.6047H438.383V33.1388H438.511C438.741 32.6402 439.09 32.2396 439.559 31.9371C440.028 31.6302 440.633 31.4768 441.374 31.4768C442.039 31.4768 442.621 31.6132 443.119 31.8859C443.618 32.1544 444.006 32.5635 444.283 33.1132C444.56 33.6586 444.698 34.349 444.698 35.1842V41.4229H443.19V35.2865C443.19 34.5152 442.99 33.9143 442.589 33.4839C442.188 33.0493 441.639 32.8319 440.94 32.8319C440.458 32.8319 440.028 32.9363 439.649 33.1452C439.274 33.354 438.977 33.6586 438.76 34.0592C438.543 34.4598 438.434 34.9456 438.434 35.5166ZM451.725 31.6047V32.8831H446.637V31.6047H451.725ZM448.12 29.2524H449.628V38.6104C449.628 39.0365 449.69 39.3561 449.814 39.5692C449.941 39.778 450.103 39.9186 450.299 39.991C450.5 40.0592 450.711 40.0933 450.932 40.0933C451.098 40.0933 451.235 40.0848 451.341 40.0677C451.448 40.0464 451.533 40.0294 451.597 40.0166L451.904 41.3717C451.801 41.4101 451.659 41.4484 451.475 41.4868C451.292 41.5294 451.06 41.5507 450.779 41.5507C450.353 41.5507 449.935 41.4591 449.526 41.2758C449.121 41.0926 448.784 40.8135 448.516 40.4385C448.252 40.0635 448.12 39.5905 448.12 39.0194V29.2524ZM456.883 41.653C456.261 41.653 455.696 41.5358 455.189 41.3014C454.682 41.0628 454.279 40.7197 453.981 40.2723C453.683 39.8206 453.534 39.2751 453.534 38.6359C453.534 38.0734 453.645 37.6175 453.866 37.268C454.088 36.9143 454.384 36.6373 454.755 36.4371C455.125 36.2368 455.534 36.0876 455.982 35.9896C456.434 35.8873 456.887 35.8064 457.343 35.7467C457.94 35.67 458.424 35.6125 458.794 35.5741C459.169 35.5315 459.442 35.4612 459.613 35.3632C459.787 35.2652 459.875 35.0947 459.875 34.8518V34.8007C459.875 34.17 459.702 33.68 459.357 33.3305C459.016 32.9811 458.498 32.8064 457.804 32.8064C457.083 32.8064 456.519 32.964 456.11 33.2794C455.701 33.5947 455.413 33.9314 455.247 34.2893L453.815 33.778C454.071 33.1814 454.412 32.7169 454.838 32.3845C455.268 32.0479 455.737 31.8135 456.244 31.6814C456.755 31.545 457.258 31.4768 457.752 31.4768C458.068 31.4768 458.43 31.5152 458.839 31.5919C459.252 31.6643 459.651 31.8156 460.034 32.0457C460.422 32.2758 460.744 32.6231 461 33.0876C461.255 33.5521 461.383 34.1743 461.383 34.9541V41.4229H459.875V40.0933H459.798C459.696 40.3064 459.525 40.5344 459.287 40.7773C459.048 41.0202 458.73 41.2268 458.334 41.3973C457.938 41.5677 457.454 41.653 456.883 41.653ZM457.113 40.2979C457.71 40.2979 458.213 40.1807 458.622 39.9463C459.035 39.7119 459.346 39.4094 459.555 39.0386C459.768 38.6679 459.875 38.278 459.875 37.8689V36.4882C459.811 36.5649 459.67 36.6352 459.453 36.6991C459.24 36.7588 458.993 36.8121 458.711 36.8589C458.434 36.9015 458.164 36.9399 457.9 36.974C457.64 37.0038 457.429 37.0294 457.267 37.0507C456.875 37.1018 456.508 37.1849 456.167 37.3C455.831 37.4108 455.558 37.5791 455.349 37.805C455.145 38.0265 455.042 38.3291 455.042 38.7126C455.042 39.2368 455.236 39.6331 455.624 39.9015C456.016 40.1657 456.512 40.2979 457.113 40.2979ZM468.125 41.6274C467.205 41.6274 466.412 41.4101 465.747 40.9754C465.083 40.5407 464.571 39.942 464.213 39.1792C463.855 38.4165 463.676 37.545 463.676 36.5649C463.676 35.5677 463.86 34.6878 464.226 33.925C464.597 33.1579 465.112 32.5592 465.773 32.1288C466.438 31.6942 467.213 31.4768 468.1 31.4768C468.79 31.4768 469.412 31.6047 469.966 31.8604C470.52 32.116 470.974 32.474 471.328 32.9342C471.681 33.3944 471.901 33.9314 471.986 34.545H470.477C470.362 34.0976 470.107 33.7013 469.71 33.3561C469.318 33.0067 468.79 32.8319 468.125 32.8319C467.537 32.8319 467.021 32.9854 466.578 33.2922C466.139 33.5947 465.796 34.023 465.549 34.577C465.306 35.1267 465.185 35.7723 465.185 36.5138C465.185 37.2723 465.304 37.9328 465.543 38.4953C465.786 39.0578 466.127 39.4946 466.566 39.8057C467.009 40.1167 467.529 40.2723 468.125 40.2723C468.517 40.2723 468.873 40.2041 469.193 40.0677C469.512 39.9314 469.783 39.7354 470.004 39.4797C470.226 39.224 470.384 38.9172 470.477 38.5592H471.986C471.901 39.1388 471.69 39.6608 471.353 40.1253C471.021 40.5855 470.58 40.952 470.03 41.2247C469.485 41.4932 468.85 41.6274 468.125 41.6274ZM478.461 31.6047V32.8831H473.373V31.6047H478.461ZM474.856 29.2524H476.365V38.6104C476.365 39.0365 476.426 39.3561 476.55 39.5692C476.678 39.778 476.84 39.9186 477.036 39.991C477.236 40.0592 477.447 40.0933 477.669 40.0933C477.835 40.0933 477.971 40.0848 478.078 40.0677C478.184 40.0464 478.269 40.0294 478.333 40.0166L478.64 41.3717C478.538 41.4101 478.395 41.4484 478.212 41.4868C478.029 41.5294 477.796 41.5507 477.515 41.5507C477.089 41.5507 476.671 41.4591 476.262 41.2758C475.857 41.0926 475.521 40.8135 475.252 40.4385C474.988 40.0635 474.856 39.5905 474.856 39.0194V29.2524ZM494.588 28.3319H496.173V36.9996C496.173 37.8944 495.963 38.6934 495.541 39.3966C495.123 40.0954 494.533 40.6473 493.77 41.0521C493.007 41.4527 492.112 41.653 491.085 41.653C490.058 41.653 489.164 41.4527 488.401 41.0521C487.638 40.6473 487.046 40.0954 486.624 39.3966C486.206 38.6934 485.997 37.8944 485.997 36.9996V28.3319H487.583V36.8717C487.583 37.5109 487.723 38.0798 488.004 38.5784C488.286 39.0727 488.686 39.4626 489.206 39.7481C489.73 40.0294 490.357 40.17 491.085 40.17C491.814 40.17 492.441 40.0294 492.965 39.7481C493.489 39.4626 493.889 39.0727 494.166 38.5784C494.448 38.0798 494.588 37.5109 494.588 36.8717V28.3319ZM506.089 33.8035L504.734 34.1871C504.649 33.9612 504.523 33.7417 504.357 33.5287C504.195 33.3113 503.973 33.1324 503.692 32.9917C503.411 32.8511 503.051 32.7808 502.612 32.7808C502.011 32.7808 501.51 32.9193 501.11 33.1963C500.713 33.469 500.515 33.8163 500.515 34.2382C500.515 34.6132 500.652 34.9094 500.924 35.1267C501.197 35.344 501.623 35.5251 502.203 35.67L503.66 36.028C504.538 36.241 505.192 36.567 505.623 37.0059C506.053 37.4406 506.268 38.001 506.268 38.6871C506.268 39.2496 506.106 39.7524 505.782 40.1956C505.463 40.6388 505.015 40.9882 504.44 41.2439C503.865 41.4996 503.196 41.6274 502.433 41.6274C501.431 41.6274 500.603 41.4101 499.946 40.9754C499.29 40.5407 498.875 39.9058 498.7 39.0706L500.132 38.7126C500.268 39.241 500.526 39.6373 500.905 39.9015C501.289 40.1657 501.789 40.2979 502.407 40.2979C503.11 40.2979 503.669 40.1487 504.082 39.8504C504.5 39.5479 504.708 39.1856 504.708 38.7638C504.708 38.4229 504.589 38.1373 504.35 37.9072C504.112 37.6729 503.745 37.4981 503.251 37.3831L501.615 36.9996C500.716 36.7865 500.055 36.4562 499.633 36.0088C499.216 35.5571 499.007 34.9925 499.007 34.3149C499.007 33.7609 499.162 33.2709 499.473 32.8447C499.789 32.4186 500.217 32.0841 500.758 31.8412C501.304 31.5983 501.922 31.4768 502.612 31.4768C503.583 31.4768 504.346 31.6899 504.9 32.116C505.458 32.5422 505.855 33.1047 506.089 33.8035Z" fill="#1C1C1C"/>
<rect x="0.183594" y="103.503" width="72.0127" height="1.93359" fill="#0152A8"/>
</svg>
